<svg width="350" height="66" viewBox="0 0 350 66" fill="none" xmlns="http://www.w3.org/2000/svg">
<rect width="350" height="66" rx="33" fill="#E53935" fill-opacity="0.07"/>
<path d="M59.0469 39V27.6875H63.2969C65.8906 27.6875 67.2734 29.1406 67.2812 31.2969C67.2734 32.8359 66.5703 33.9766 65.2422 34.5156L67.6875 39H65.4219L63.2031 34.8594H61.0781V39H59.0469ZM61.0781 33.1562H62.9844C64.5156 33.1641 65.2031 32.5078 65.2031 31.2969C65.2031 30.0938 64.5156 29.3906 62.9844 29.3906H61.0781V33.1562ZM72.5781 39.1719C70.0234 39.1719 68.4531 37.4688 68.4531 34.8125C68.4531 32.1875 70.0469 30.4062 72.4688 30.4062C74.5469 30.4062 76.3438 31.7109 76.3438 34.6875V35.3125H70.4219C70.4531 36.7578 71.3047 37.6172 72.5938 37.6094C73.4688 37.6172 74.0547 37.2422 74.3125 36.7344H76.2656C75.9062 38.2031 74.5469 39.1719 72.5781 39.1719ZM70.4297 33.9531H74.4375C74.4297 32.7969 73.6484 31.9531 72.5 31.9531C71.3047 31.9531 70.5 32.875 70.4297 33.9531ZM77.8906 42.1875V30.5156H79.8438V31.9062H79.9688C80.2734 31.3047 80.8984 30.4062 82.4062 30.4062C84.3594 30.4062 85.8984 31.9375 85.9062 34.7656C85.8984 37.5547 84.4062 39.1484 82.4062 39.1562C80.9453 39.1484 80.2812 38.2812 79.9688 37.6562H79.8906V42.1875H77.8906ZM79.8438 34.75C79.8516 36.4062 80.5703 37.5156 81.8594 37.5156C83.1797 37.5156 83.875 36.3516 83.875 34.75C83.875 33.1719 83.1953 32.0391 81.8594 32.0312C80.5547 32.0391 79.8516 33.1016 79.8438 34.75ZM91.2344 39.1719C88.6797 39.1719 87.1094 37.4688 87.1094 34.8125C87.1094 32.1875 88.7031 30.4062 91.125 30.4062C93.2031 30.4062 95 31.7109 95 34.6875V35.3125H89.0781C89.1094 36.7578 89.9609 37.6172 91.25 37.6094C92.125 37.6172 92.7109 37.2422 92.9688 36.7344H94.9219C94.5625 38.2031 93.2031 39.1719 91.2344 39.1719ZM89.0859 33.9531H93.0938C93.0859 32.7969 92.3047 31.9531 91.1562 31.9531C89.9609 31.9531 89.1562 32.875 89.0859 33.9531ZM96.1562 36.6094C96.1562 34.7031 97.7422 34.1484 99.3125 34.0469C99.9062 34 101.117 33.9453 101.492 33.9297L101.484 33.25C101.484 32.4062 100.945 31.9219 99.9531 31.9219C99.0625 31.9219 98.5156 32.3281 98.3594 32.9375H96.4375C96.5781 31.4922 97.875 30.4062 100 30.4062C101.609 30.4062 103.469 31.0703 103.469 33.3281V39H101.562V37.8281H101.5C101.125 38.5469 100.336 39.1719 99 39.1719C97.3828 39.1719 96.1562 38.2891 96.1562 36.6094ZM98.0781 36.5938C98.0781 37.3281 98.6797 37.7031 99.5156 37.7031C100.727 37.7031 101.5 36.9062 101.5 35.9531L101.492 35.2578C101.133 35.2734 100.023 35.3438 99.625 35.375C98.6797 35.4531 98.0781 35.8516 98.0781 36.5938ZM109.578 30.5156V32.0469H107.906V36.4531C107.906 37.2656 108.312 37.4297 108.812 37.4375C109.047 37.4453 109.438 37.4219 109.688 37.4062V39.0312C109.453 39.0703 109.07 39.1172 108.562 39.1094C107.062 39.1172 105.906 38.375 105.922 36.7812V32.0469H104.703V30.5156H105.922V28.4844H107.906V30.5156H109.578ZM114.781 39.1719C112.227 39.1719 110.656 37.4688 110.656 34.8125C110.656 32.1875 112.25 30.4062 114.672 30.4062C116.75 30.4062 118.547 31.7109 118.547 34.6875V35.3125H112.625C112.656 36.7578 113.508 37.6172 114.797 37.6094C115.672 37.6172 116.258 37.2422 116.516 36.7344H118.469C118.109 38.2031 116.75 39.1719 114.781 39.1719ZM112.633 33.9531H116.641C116.633 32.7969 115.852 31.9531 114.703 31.9531C113.508 31.9531 112.703 32.875 112.633 33.9531ZM123.25 39.1562C121.258 39.1484 119.75 37.5547 119.75 34.7656C119.75 31.9375 121.297 30.4062 123.266 30.4062C124.758 30.4062 125.383 31.3047 125.688 31.9062H125.766V27.6875H127.75V39H125.797V37.6562H125.688C125.367 38.2812 124.719 39.1484 123.25 39.1562ZM121.781 34.75C121.781 36.3516 122.484 37.5156 123.797 37.5156C125.086 37.5156 125.812 36.4062 125.812 34.75C125.812 33.1016 125.094 32.0391 123.797 32.0312C122.469 32.0391 121.781 33.1719 121.781 34.75ZM136.391 32.0469L137.703 27.6719H139.188L138.375 32.0469H136.391ZM133.094 32.0469L134.406 27.6719H135.891L135.078 32.0469H133.094ZM150.469 27.6875V39H148.656L143.297 31.2656H143.203V39H141.172V27.6875H143.016L148.344 35.4219H148.453V27.6875H150.469ZM156.172 39.1719C153.695 39.1719 152.109 37.4141 152.109 34.7969C152.109 32.1562 153.695 30.4062 156.172 30.4062C158.656 30.4062 160.242 32.1562 160.234 34.7969C160.242 37.4141 158.656 39.1719 156.172 39.1719ZM154.125 34.7812C154.125 36.3359 154.805 37.5781 156.188 37.5781C157.547 37.5781 158.227 36.3359 158.219 34.7812C158.227 33.2266 157.547 31.9766 156.188 31.9844C154.805 31.9766 154.125 33.2266 154.125 34.7812ZM164.562 27.7031L163.25 32.0781H161.766L162.578 27.7031H164.562ZM165.062 32.0781L165.875 27.7031H167.859L166.547 32.0781H165.062ZM173.094 39V27.6875H175.094V33.9219H175.234L178.281 30.5156H180.609L177.32 34.1719L180.812 39H178.438L175.828 35.3594L175.094 36.1406V39H173.094ZM185.203 39.1719C182.648 39.1719 181.078 37.4688 181.078 34.8125C181.078 32.1875 182.672 30.4062 185.094 30.4062C187.172 30.4062 188.969 31.7109 188.969 34.6875V35.3125H183.047C183.078 36.7578 183.93 37.6172 185.219 37.6094C186.094 37.6172 186.68 37.2422 186.938 36.7344H188.891C188.531 38.2031 187.172 39.1719 185.203 39.1719ZM183.055 33.9531H187.062C187.055 32.7969 186.273 31.9531 185.125 31.9531C183.93 31.9531 183.125 32.875 183.055 33.9531ZM194.281 39.1719C191.727 39.1719 190.156 37.4688 190.156 34.8125C190.156 32.1875 191.75 30.4062 194.172 30.4062C196.25 30.4062 198.047 31.7109 198.047 34.6875V35.3125H192.125C192.156 36.7578 193.008 37.6172 194.297 37.6094C195.172 37.6172 195.758 37.2422 196.016 36.7344H197.969C197.609 38.2031 196.25 39.1719 194.281 39.1719ZM192.133 33.9531H196.141C196.133 32.7969 195.352 31.9531 194.203 31.9531C193.008 31.9531 192.203 32.875 192.133 33.9531ZM199.594 42.1875V30.5156H201.547V31.9062H201.672C201.977 31.3047 202.602 30.4062 204.109 30.4062C206.062 30.4062 207.602 31.9375 207.609 34.7656C207.602 37.5547 206.109 39.1484 204.109 39.1562C202.648 39.1484 201.984 38.2812 201.672 37.6562H201.594V42.1875H199.594ZM201.547 34.75C201.555 36.4062 202.273 37.5156 203.562 37.5156C204.883 37.5156 205.578 36.3516 205.578 34.75C205.578 33.1719 204.898 32.0391 203.562 32.0312C202.258 32.0391 201.555 33.1016 201.547 34.75ZM213.984 32.9375C213.859 32.2969 213.328 31.8828 212.484 31.8906C211.633 31.8828 211.008 32.3125 211.016 32.8906C211.008 33.3281 211.359 33.6562 212.219 33.8594L213.656 34.1562C215.258 34.5078 216.039 35.25 216.047 36.4688C216.039 38.0625 214.641 39.1719 212.422 39.1719C210.266 39.1719 208.992 38.2031 208.781 36.5781H210.812C210.93 37.3047 211.492 37.6641 212.422 37.6562C213.383 37.6641 214.008 37.2734 214.016 36.6406C214.008 36.1484 213.625 35.8359 212.781 35.6562L211.422 35.3594C209.844 35.0391 209.023 34.2109 209.031 33C209.023 31.4297 210.383 30.4062 212.453 30.4062C214.477 30.4062 215.727 31.3984 215.875 32.9375H213.984ZM221.359 39V30.5156H223.297V31.9219H223.391C223.695 30.9453 224.508 30.3906 225.484 30.3906C225.703 30.3906 226.016 30.4141 226.203 30.4375V32.2812C226.023 32.2188 225.609 32.1641 225.281 32.1562C224.172 32.1641 223.359 32.9297 223.359 34V39H221.359ZM227.391 39V30.5156H229.391V39H227.391ZM227.25 28.2188C227.25 27.625 227.773 27.1406 228.406 27.1406C229.039 27.1406 229.562 27.625 229.562 28.2188C229.562 28.8203 229.039 29.3047 228.406 29.3125C227.773 29.3047 227.25 28.8203 227.25 28.2188ZM236.109 32.9375C235.984 32.2969 235.453 31.8828 234.609 31.8906C233.758 31.8828 233.133 32.3125 233.141 32.8906C233.133 33.3281 233.484 33.6562 234.344 33.8594L235.781 34.1562C237.383 34.5078 238.164 35.25 238.172 36.4688C238.164 38.0625 236.766 39.1719 234.547 39.1719C232.391 39.1719 231.117 38.2031 230.906 36.5781H232.938C233.055 37.3047 233.617 37.6641 234.547 37.6562C235.508 37.6641 236.133 37.2734 236.141 36.6406C236.133 36.1484 235.75 35.8359 234.906 35.6562L233.547 35.3594C231.969 35.0391 231.148 34.2109 231.156 33C231.148 31.4297 232.508 30.4062 234.578 30.4062C236.602 30.4062 237.852 31.3984 238 32.9375H236.109ZM239.688 39V27.6875H241.688V33.9219H241.828L244.875 30.5156H247.203L243.914 34.1719L247.406 39H245.031L242.422 35.3594L241.688 36.1406V39H239.688ZM257 32.9375C256.875 32.2969 256.344 31.8828 255.5 31.8906C254.648 31.8828 254.023 32.3125 254.031 32.8906C254.023 33.3281 254.375 33.6562 255.234 33.8594L256.672 34.1562C258.273 34.5078 259.055 35.25 259.062 36.4688C259.055 38.0625 257.656 39.1719 255.438 39.1719C253.281 39.1719 252.008 38.2031 251.797 36.5781H253.828C253.945 37.3047 254.508 37.6641 255.438 37.6562C256.398 37.6641 257.023 37.2734 257.031 36.6406C257.023 36.1484 256.641 35.8359 255.797 35.6562L254.438 35.3594C252.859 35.0391 252.039 34.2109 252.047 33C252.039 31.4297 253.398 30.4062 255.469 30.4062C257.492 30.4062 258.742 31.3984 258.891 32.9375H257ZM264.812 30.5156V32.0469H263.141V36.4531C263.141 37.2656 263.547 37.4297 264.047 37.4375C264.281 37.4453 264.672 37.4219 264.922 37.4062V39.0312C264.688 39.0703 264.305 39.1172 263.797 39.1094C262.297 39.1172 261.141 38.375 261.156 36.7812V32.0469H259.938V30.5156H261.156V28.4844H263.141V30.5156H264.812ZM270.016 39.1719C267.461 39.1719 265.891 37.4688 265.891 34.8125C265.891 32.1875 267.484 30.4062 269.906 30.4062C271.984 30.4062 273.781 31.7109 273.781 34.6875V35.3125H267.859C267.891 36.7578 268.742 37.6172 270.031 37.6094C270.906 37.6172 271.492 37.2422 271.75 36.7344H273.703C273.344 38.2031 271.984 39.1719 270.016 39.1719ZM267.867 33.9531H271.875C271.867 32.7969 271.086 31.9531 269.938 31.9531C268.742 31.9531 267.938 32.875 267.867 33.9531ZM274.938 36.6094C274.938 34.7031 276.523 34.1484 278.094 34.0469C278.688 34 279.898 33.9453 280.273 33.9297L280.266 33.25C280.266 32.4062 279.727 31.9219 278.734 31.9219C277.844 31.9219 277.297 32.3281 277.141 32.9375H275.219C275.359 31.4922 276.656 30.4062 278.781 30.4062C280.391 30.4062 282.25 31.0703 282.25 33.3281V39H280.344V37.8281H280.281C279.906 38.5469 279.117 39.1719 277.781 39.1719C276.164 39.1719 274.938 38.2891 274.938 36.6094ZM276.859 36.5938C276.859 37.3281 277.461 37.7031 278.297 37.7031C279.508 37.7031 280.281 36.9062 280.281 35.9531L280.273 35.2578C279.914 35.2734 278.805 35.3438 278.406 35.375C277.461 35.4531 276.859 35.8516 276.859 36.5938ZM287.281 39.1562C285.289 39.1484 283.781 37.5547 283.781 34.7656C283.781 31.9375 285.328 30.4062 287.297 30.4062C288.789 30.4062 289.414 31.3047 289.719 31.9062H289.797V27.6875H291.781V39H289.828V37.6562H289.719C289.398 38.2812 288.75 39.1484 287.281 39.1562ZM285.812 34.75C285.812 36.3516 286.516 37.5156 287.828 37.5156C289.117 37.5156 289.844 36.4062 289.844 34.75C289.844 33.1016 289.125 32.0391 287.828 32.0312C286.5 32.0391 285.812 33.1719 285.812 34.75ZM295 42.1875C294.602 42.1797 294.227 42.1719 293.969 42.1406V40.5469C294.211 40.5703 294.547 40.5703 294.812 40.5781C295.297 40.5703 295.703 40.5391 296.047 39.625L296.219 39.1719L293.125 30.5156H295.234L297.203 36.9219H297.297L299.266 30.5156H301.375L297.969 40.0312C297.484 41.3828 296.594 42.1797 295 42.1875ZM303.328 39.125C302.656 39.125 302.102 38.5781 302.109 37.9062C302.102 37.25 302.656 36.7109 303.328 36.7031C303.977 36.7109 304.531 37.25 304.531 37.9062C304.531 38.5781 303.977 39.125 303.328 39.125Z" fill="#E53935"/>
<path d="M36.0518 26.875C36.8907 25.4222 38.948 25.3765 39.8633 26.7383L39.9482 26.875L46.877 38.875C47.7429 40.375 46.6598 42.25 44.9277 42.25H31.0723C29.3402 42.25 28.2571 40.375 29.123 38.875L36.0518 26.875Z" stroke="#E53935" stroke-width="1.5"/>
<path d="M38 31L38 36" stroke="#E53935" stroke-width="1.5" stroke-linecap="round"/>
<circle cx="38" cy="39" r="1" fill="#E53935"/>
</svg>
