<svg width="79" height="47" viewBox="0 0 79 47" fill="none" xmlns="http://www.w3.org/2000/svg">
<path d="M49.125 8.625L44.2864 13.8358C43.8907 14.2619 43.2164 14.2619 42.8208 13.8358L41.5006 12.4142C41.105 11.9881 40.4307 11.9881 40.0351 12.4142L36.125 16.625" stroke="#62656A" stroke-width="2.5" stroke-linecap="round" stroke-linejoin="round"/>
<path d="M31.125 4.625V20.425C31.125 21.5451 31.125 22.1052 31.343 22.533C31.5347 22.9093 31.8407 23.2153 32.217 23.407C32.6448 23.625 33.2049 23.625 34.325 23.625H49.125" stroke="#62656A" stroke-width="2.5" stroke-linecap="round"/>
<path d="M17.8672 44H16.2383L19.2266 35.5156H21.1016L24.1016 44H22.4727L21.7637 41.9023H18.5703L17.8672 44ZM18.9805 40.6719H21.3535L20.1992 37.25H20.1289L18.9805 40.6719ZM26.5391 40.2734V44H25.0391V37.6367H26.4688V38.7148H26.5508C26.8379 38.0059 27.4883 37.5547 28.4375 37.5547C29.7559 37.5547 30.623 38.4219 30.6172 39.9453V44H29.1289V40.1797C29.1289 39.3242 28.666 38.8145 27.8867 38.8203C27.0957 38.8145 26.5391 39.3477 26.5391 40.2734ZM31.7539 42.207C31.7539 40.7773 32.9434 40.3613 34.1211 40.2852C34.5664 40.25 35.4746 40.209 35.7559 40.1973L35.75 39.6875C35.75 39.0547 35.3457 38.6914 34.6016 38.6914C33.9336 38.6914 33.5234 38.9961 33.4062 39.4531H31.9648C32.0703 38.3691 33.043 37.5547 34.6367 37.5547C35.8438 37.5547 37.2383 38.0527 37.2383 39.7461V44H35.8086V43.1211H35.7617C35.4805 43.6602 34.8887 44.1289 33.8867 44.1289C32.6738 44.1289 31.7539 43.4668 31.7539 42.207ZM33.1953 42.1953C33.1953 42.7461 33.6465 43.0273 34.2734 43.0273C35.1816 43.0273 35.7617 42.4297 35.7617 41.7148L35.7559 41.1934C35.4863 41.2051 34.6543 41.2578 34.3555 41.2812C33.6465 41.3398 33.1953 41.6387 33.1953 42.1953ZM40.1445 35.5156V44H38.6445V35.5156H40.1445ZM42.4766 46.3906C42.1777 46.3848 41.8965 46.3789 41.7031 46.3555V45.1602C41.8848 45.1777 42.1367 45.1777 42.3359 45.1836C42.6992 45.1777 43.0039 45.1543 43.2617 44.4688L43.3906 44.1289L41.0703 37.6367H42.6523L44.1289 42.4414H44.1992L45.6758 37.6367H47.2578L44.7031 44.7734C44.3398 45.7871 43.6719 46.3848 42.4766 46.3906ZM51.8047 39.4531C51.7109 38.9727 51.3125 38.6621 50.6797 38.668C50.041 38.6621 49.5723 38.9844 49.5781 39.418C49.5723 39.7461 49.8359 39.9922 50.4805 40.1445L51.5586 40.3672C52.7598 40.6309 53.3457 41.1875 53.3516 42.1016C53.3457 43.2969 52.2969 44.1289 50.6328 44.1289C49.0156 44.1289 48.0605 43.4023 47.9023 42.1836H49.4258C49.5137 42.7285 49.9355 42.998 50.6328 42.9922C51.3535 42.998 51.8223 42.7051 51.8281 42.2305C51.8223 41.8613 51.5352 41.627 50.9023 41.4922L49.8828 41.2695C48.6992 41.0293 48.084 40.4082 48.0898 39.5C48.084 38.3223 49.1035 37.5547 50.6562 37.5547C52.1738 37.5547 53.1113 38.2988 53.2227 39.4531H51.8047ZM54.4883 44V37.6367H55.9883V44H54.4883ZM54.3828 35.9141C54.3828 35.4688 54.7754 35.1055 55.25 35.1055C55.7246 35.1055 56.1172 35.4688 56.1172 35.9141C56.1172 36.3652 55.7246 36.7285 55.25 36.7344C54.7754 36.7285 54.3828 36.3652 54.3828 35.9141ZM61.0273 39.4531C60.9336 38.9727 60.5352 38.6621 59.9023 38.668C59.2637 38.6621 58.7949 38.9844 58.8008 39.418C58.7949 39.7461 59.0586 39.9922 59.7031 40.1445L60.7812 40.3672C61.9824 40.6309 62.5684 41.1875 62.5742 42.1016C62.5684 43.2969 61.5195 44.1289 59.8555 44.1289C58.2383 44.1289 57.2832 43.4023 57.125 42.1836H58.6484C58.7363 42.7285 59.1582 42.998 59.8555 42.9922C60.5762 42.998 61.0449 42.7051 61.0508 42.2305C61.0449 41.8613 60.7578 41.627 60.125 41.4922L59.1055 41.2695C57.9219 41.0293 57.3066 40.4082 57.3125 39.5C57.3066 38.3223 58.3262 37.5547 59.8789 37.5547C61.3965 37.5547 62.334 38.2988 62.4453 39.4531H61.0273Z" fill="#62656A"/>
</svg>
