<svg width="31" height="31" viewBox="0 0 31 31" fill="none" xmlns="http://www.w3.org/2000/svg">
<path d="M8.65413 27.125C8.02982 27.125 7.4757 26.9205 6.99176 26.5115C6.50781 26.1024 6.21159 25.5858 6.10309 24.9615L4.1333 13.1427C4.06871 12.7552 4.16042 12.4056 4.40842 12.0939C4.65642 11.7822 4.98451 11.6259 5.39267 11.625H25.6073C26.0163 11.625 26.3448 11.7813 26.5928 12.0939C26.8408 12.4065 26.9321 12.7561 26.8666 13.1427L24.8968 24.9615C24.7892 25.5858 24.4934 26.1024 24.0095 26.5115C23.5255 26.9205 22.971 27.125 22.3458 27.125H8.65413ZM12.9166 19.375H18.0833C18.4493 19.375 18.7563 19.251 19.0043 19.003C19.2523 18.755 19.3758 18.4484 19.375 18.0833C19.3741 17.7182 19.2501 17.4117 19.003 17.1637C18.7558 16.9157 18.4493 16.7917 18.0833 16.7917H12.9166C12.5507 16.7917 12.2441 16.9157 11.997 17.1637C11.7498 17.4117 11.6258 17.7182 11.625 18.0833C11.6241 18.4484 11.7481 18.7554 11.997 19.0043C12.2458 19.2532 12.5524 19.3767 12.9166 19.375ZM7.74996 10.3333C7.38399 10.3333 7.07744 10.2093 6.8303 9.96133C6.58316 9.71333 6.45916 9.40678 6.4583 9.04167C6.45744 8.67656 6.58144 8.37 6.8303 8.122C7.07916 7.874 7.38571 7.75 7.74996 7.75H23.25C23.6159 7.75 23.9229 7.874 24.1709 8.122C24.4189 8.37 24.5425 8.67656 24.5416 9.04167C24.5408 9.40678 24.4168 9.71376 24.1696 9.96262C23.9225 10.2115 23.6159 10.3351 23.25 10.3333H7.74996ZM10.3333 6.45833C9.96732 6.45833 9.66077 6.33433 9.41363 6.08633C9.16649 5.83833 9.04249 5.53178 9.04163 5.16667C9.04077 4.80156 9.16477 4.495 9.41363 4.247C9.66249 3.999 9.96905 3.875 10.3333 3.875H20.6666C21.0326 3.875 21.3396 3.999 21.5876 4.247C21.8356 4.495 21.9592 4.80156 21.9583 5.16667C21.9574 5.53178 21.8334 5.83876 21.5863 6.08762C21.3392 6.33649 21.0326 6.46006 20.6666 6.45833H10.3333Z" fill="#A5ABB3"/>
</svg>
