<svg width="79" height="47" viewBox="0 0 79 47" fill="none" xmlns="http://www.w3.org/2000/svg">
<path d="M29 5.70259L31.0192 7.69397L34.3846 4.375M29 13.6681L31.0192 15.6595L34.3846 12.3405M29 21.6336L31.0192 23.625L34.3846 20.306M38.7596 6.36638H50M38.7596 14.3319H50M38.7596 22.2974H50" stroke="#A5ABB3" stroke-width="2.5" stroke-linecap="round" stroke-linejoin="round"/>
<path d="M10.2441 44H7.36133V35.5156H10.291C12.8223 35.5156 14.3516 37.1035 14.3574 39.7461C14.3516 42.4004 12.8223 44 10.2441 44ZM8.88477 42.6758H10.1621C11.9375 42.6816 12.834 41.7031 12.834 39.7461C12.834 37.8008 11.9375 36.834 10.209 36.8398H8.88477V42.6758ZM15.3418 42.207C15.3418 40.7773 16.5312 40.3613 17.709 40.2852C18.1543 40.25 19.0625 40.209 19.3438 40.1973L19.3379 39.6875C19.3379 39.0547 18.9336 38.6914 18.1895 38.6914C17.5215 38.6914 17.1113 38.9961 16.9941 39.4531H15.5527C15.6582 38.3691 16.6309 37.5547 18.2246 37.5547C19.4316 37.5547 20.8262 38.0527 20.8262 39.7461V44H19.3965V43.1211H19.3496C19.0684 43.6602 18.4766 44.1289 17.4746 44.1289C16.2617 44.1289 15.3418 43.4668 15.3418 42.207ZM16.7832 42.1953C16.7832 42.7461 17.2344 43.0273 17.8613 43.0273C18.7695 43.0273 19.3496 42.4297 19.3496 41.7148L19.3438 41.1934C19.0742 41.2051 18.2422 41.2578 17.9434 41.2812C17.2344 41.3398 16.7832 41.6387 16.7832 42.1953ZM22.2324 44V37.6367H23.7324V44H22.2324ZM22.127 35.9141C22.127 35.4688 22.5195 35.1055 22.9941 35.1055C23.4688 35.1055 23.8613 35.4688 23.8613 35.9141C23.8613 36.3652 23.4688 36.7285 22.9941 36.7344C22.5195 36.7285 22.127 36.3652 22.127 35.9141ZM26.6621 35.5156V44H25.1621V35.5156H26.6621ZM28.9941 46.3906C28.6953 46.3848 28.4141 46.3789 28.2207 46.3555V45.1602C28.4023 45.1777 28.6543 45.1777 28.8535 45.1836C29.2168 45.1777 29.5215 45.1543 29.7793 44.4688L29.9082 44.1289L27.5879 37.6367H29.1699L30.6465 42.4414H30.7168L32.1934 37.6367H33.7754L31.2207 44.7734C30.8574 45.7871 30.1895 46.3848 28.9941 46.3906ZM43.3496 38.375C43.168 37.3555 42.3535 36.7695 41.3223 36.7695C39.9336 36.7695 38.9492 37.8359 38.9551 39.7578C38.9492 41.709 39.9395 42.7461 41.3223 42.7461C42.3301 42.7461 43.1445 42.1836 43.3496 41.1875H44.8848C44.6504 42.8164 43.3086 44.1172 41.2988 44.1172C39.0605 44.1172 37.4141 42.4941 37.4199 39.7578C37.4141 37.0156 39.0781 35.3984 41.2988 35.3984C43.1738 35.3984 44.6211 36.4883 44.8848 38.375H43.3496ZM47.627 40.2734V44H46.127V35.5156H47.5918V38.7148H47.6738C47.9609 37.9941 48.582 37.5547 49.5605 37.5547C50.8789 37.5547 51.752 38.4102 51.752 39.9453V44H50.2637V40.1797C50.2578 39.3125 49.7949 38.8145 49.0098 38.8203C48.2012 38.8145 47.627 39.3477 47.627 40.2734ZM55.9941 44.1289C54.0781 44.1289 52.9004 42.8516 52.9004 40.8594C52.9004 38.8906 54.0957 37.5547 55.9121 37.5547C57.4707 37.5547 58.8184 38.5332 58.8184 40.7656V41.2344H54.377C54.4004 42.3184 55.0391 42.9629 56.0059 42.957C56.6621 42.9629 57.1016 42.6816 57.2949 42.3008H58.7598C58.4902 43.4023 57.4707 44.1289 55.9941 44.1289ZM54.3828 40.2148H57.3887C57.3828 39.3477 56.7969 38.7148 55.9355 38.7148C55.0391 38.7148 54.4355 39.4062 54.3828 40.2148ZM62.7559 44.1289C60.8574 44.1289 59.709 42.7695 59.709 40.8477C59.709 38.8965 60.8926 37.5547 62.7559 37.5547C64.2969 37.5547 65.3809 38.457 65.4863 39.8281H64.0566C63.9395 39.2188 63.4941 38.7559 62.7676 38.75C61.8418 38.7559 61.2207 39.5293 61.2207 40.8125C61.2207 42.125 61.8301 42.9043 62.7676 42.9102C63.4297 42.9043 63.9219 42.5176 64.0566 41.832H65.4863C65.375 43.1738 64.3555 44.1289 62.7559 44.1289ZM66.6113 44V35.5156H68.1113V40.1914H68.2168L70.502 37.6367H72.248L69.7812 40.3789L72.4004 44H70.6191L68.6621 41.2695L68.1113 41.8555V44H66.6113Z" fill="#A5ABB3"/>
</svg>
