<svg width="79" height="46" viewBox="0 0 79 46" fill="none" xmlns="http://www.w3.org/2000/svg">
<path d="M29 14.3281L39.8281 3.5L50.6562 14.3281M31.707 12.2979V23.8027C31.707 24.1617 31.8496 24.506 32.1035 24.7598C32.3573 25.0136 32.7016 25.1562 33.0605 25.1562H37.1211V21.0957C37.1211 20.7367 37.2637 20.3925 37.5175 20.1386C37.7714 19.8848 38.1156 19.7422 38.4746 19.7422H41.1816C41.5406 19.7422 41.8849 19.8848 42.1387 20.1386C42.3926 20.3925 42.5352 20.7367 42.5352 21.0957V25.1562H46.5957C46.9547 25.1562 47.299 25.0136 47.5528 24.7598C47.8066 24.506 47.9492 24.1617 47.9492 23.8027V12.2979" stroke="#62656A" stroke-width="2.5" stroke-linecap="round" stroke-linejoin="round"/>
<path d="M12.8281 44H9.94531V35.5156H12.875C15.4062 35.5156 16.9355 37.1035 16.9414 39.7461C16.9355 42.4004 15.4062 44 12.8281 44ZM11.4688 42.6758H12.7461C14.5215 42.6816 15.418 41.7031 15.418 39.7461C15.418 37.8008 14.5215 36.834 12.793 36.8398H11.4688V42.6758ZM17.9258 42.207C17.9258 40.7773 19.1152 40.3613 20.293 40.2852C20.7383 40.25 21.6465 40.209 21.9277 40.1973L21.9219 39.6875C21.9219 39.0547 21.5176 38.6914 20.7734 38.6914C20.1055 38.6914 19.6953 38.9961 19.5781 39.4531H18.1367C18.2422 38.3691 19.2148 37.5547 20.8086 37.5547C22.0156 37.5547 23.4102 38.0527 23.4102 39.7461V44H21.9805V43.1211H21.9336C21.6523 43.6602 21.0605 44.1289 20.0586 44.1289C18.8457 44.1289 17.9258 43.4668 17.9258 42.207ZM19.3672 42.1953C19.3672 42.7461 19.8184 43.0273 20.4453 43.0273C21.3535 43.0273 21.9336 42.4297 21.9336 41.7148L21.9277 41.1934C21.6582 41.2051 20.8262 41.2578 20.5273 41.2812C19.8184 41.3398 19.3672 41.6387 19.3672 42.1953ZM28.4258 39.4531C28.332 38.9727 27.9336 38.6621 27.3008 38.668C26.6621 38.6621 26.1934 38.9844 26.1992 39.418C26.1934 39.7461 26.457 39.9922 27.1016 40.1445L28.1797 40.3672C29.3809 40.6309 29.9668 41.1875 29.9727 42.1016C29.9668 43.2969 28.918 44.1289 27.2539 44.1289C25.6367 44.1289 24.6816 43.4023 24.5234 42.1836H26.0469C26.1348 42.7285 26.5566 42.998 27.2539 42.9922C27.9746 42.998 28.4434 42.7051 28.4492 42.2305C28.4434 41.8613 28.1562 41.627 27.5234 41.4922L26.5039 41.2695C25.3203 41.0293 24.7051 40.4082 24.7109 39.5C24.7051 38.3223 25.7246 37.5547 27.2773 37.5547C28.7949 37.5547 29.7324 38.2988 29.8438 39.4531H28.4258ZM32.6094 40.2734V44H31.1094V35.5156H32.5742V38.7148H32.6562C32.9434 37.9941 33.5645 37.5547 34.543 37.5547C35.8613 37.5547 36.7344 38.4102 36.7344 39.9453V44H35.2461V40.1797C35.2402 39.3125 34.7773 38.8145 33.9922 38.8203C33.1836 38.8145 32.6094 39.3477 32.6094 40.2734ZM38.2227 44V35.5156H39.7227V38.6797H39.7812C40.0098 38.2285 40.4727 37.5547 41.5977 37.5547C43.0684 37.5547 44.2285 38.7031 44.2344 40.8242C44.2285 42.916 43.1035 44.1113 41.6094 44.1172C40.5078 44.1113 40.0156 43.4609 39.7812 42.9922H39.6875V44H38.2227ZM39.6875 40.8125C39.6875 42.0547 40.2324 42.8867 41.1875 42.8867C42.1836 42.8867 42.7051 42.0137 42.7109 40.8125C42.7051 39.6289 42.1953 38.7793 41.1875 38.7734C40.2207 38.7793 39.6875 39.5762 39.6875 40.8125ZM48.1836 44.1289C46.3262 44.1289 45.1367 42.8105 45.1367 40.8477C45.1367 38.8672 46.3262 37.5547 48.1836 37.5547C50.0469 37.5547 51.2363 38.8672 51.2305 40.8477C51.2363 42.8105 50.0469 44.1289 48.1836 44.1289ZM46.6484 40.8359C46.6484 42.002 47.1582 42.9336 48.1953 42.9336C49.2148 42.9336 49.7246 42.002 49.7188 40.8359C49.7246 39.6699 49.2148 38.7324 48.1953 38.7383C47.1582 38.7324 46.6484 39.6699 46.6484 40.8359ZM52.0977 42.207C52.0977 40.7773 53.2871 40.3613 54.4648 40.2852C54.9102 40.25 55.8184 40.209 56.0996 40.1973L56.0938 39.6875C56.0938 39.0547 55.6895 38.6914 54.9453 38.6914C54.2773 38.6914 53.8672 38.9961 53.75 39.4531H52.3086C52.4141 38.3691 53.3867 37.5547 54.9805 37.5547C56.1875 37.5547 57.582 38.0527 57.582 39.7461V44H56.1523V43.1211H56.1055C55.8242 43.6602 55.2324 44.1289 54.2305 44.1289C53.0176 44.1289 52.0977 43.4668 52.0977 42.207ZM53.5391 42.1953C53.5391 42.7461 53.9902 43.0273 54.6172 43.0273C55.5254 43.0273 56.1055 42.4297 56.1055 41.7148L56.0996 41.1934C55.8301 41.2051 54.998 41.2578 54.6992 41.2812C53.9902 41.3398 53.5391 41.6387 53.5391 42.1953ZM58.9883 44V37.6367H60.4414V38.6914H60.5117C60.7402 37.959 61.3496 37.543 62.082 37.543C62.2461 37.543 62.4805 37.5605 62.6211 37.5781V38.9609C62.4863 38.9141 62.1758 38.873 61.9297 38.8672C61.0977 38.873 60.4883 39.4473 60.4883 40.25V44H58.9883ZM65.668 44.1172C64.1738 44.1113 63.043 42.916 63.043 40.8242C63.043 38.7031 64.2031 37.5547 65.6797 37.5547C66.7988 37.5547 67.2676 38.2285 67.4961 38.6797H67.5547V35.5156H69.043V44H67.5781V42.9922H67.4961C67.2559 43.4609 66.7695 44.1113 65.668 44.1172ZM64.5664 40.8125C64.5664 42.0137 65.0938 42.8867 66.0781 42.8867C67.0449 42.8867 67.5898 42.0547 67.5898 40.8125C67.5898 39.5762 67.0508 38.7793 66.0781 38.7734C65.082 38.7793 64.5664 39.6289 64.5664 40.8125Z" fill="#62656A"/>
</svg>
