<svg width="15" height="19" viewBox="0 0 15 19" fill="none" xmlns="http://www.w3.org/2000/svg">
<path d="M8.945 17.6898C11.1238 15.7723 15 11.8548 15 8.25977C15 6.27064 14.2098 4.36299 12.8033 2.95646C11.3968 1.54994 9.48912 0.759766 7.5 0.759766C5.51088 0.759766 3.60322 1.54994 2.1967 2.95646C0.790176 4.36299 2.96403e-08 6.27064 0 8.25977C0 11.8548 3.875 15.7723 6.055 17.6898C6.45264 18.0447 6.967 18.2409 7.5 18.2409C8.033 18.2409 8.54736 18.0447 8.945 17.6898ZM5 8.25977C5 7.59672 5.26339 6.96084 5.73223 6.492C6.20107 6.02316 6.83696 5.75977 7.5 5.75977C8.16304 5.75977 8.79893 6.02316 9.26777 6.492C9.73661 6.96084 10 7.59672 10 8.25977C10 8.92281 9.73661 9.55869 9.26777 10.0275C8.79893 10.4964 8.16304 10.7598 7.5 10.7598C6.83696 10.7598 6.20107 10.4964 5.73223 10.0275C5.26339 9.55869 5 8.92281 5 8.25977Z" fill="#E9F1FC"/>
</svg>
