<svg width="382" height="419" viewBox="0 0 382 419" fill="none" xmlns="http://www.w3.org/2000/svg">
<g filter="url(#filter0_d_409_11447)">
<rect x="16" y="16" width="350" height="387" rx="20" fill="#F9FAFE"/>
<path d="M41.2031 44.7969C41.1016 43.8203 40.2812 43.2578 39.0625 43.2656C37.7734 43.2578 37.0078 43.8828 37 44.7344C36.9922 45.6875 38 46.0781 38.9375 46.2969L40 46.5781C41.6875 46.9688 43.3125 47.8594 43.3125 49.8281C43.3125 51.8125 41.7422 53.1719 39.0312 53.1719C36.3984 53.1719 34.7266 51.9062 34.6406 49.6719H36.6406C36.7344 50.8516 37.7266 51.4297 39.0156 51.4375C40.3516 51.4297 41.2734 50.7812 41.2812 49.8125C41.2734 48.9219 40.4609 48.5469 39.2344 48.2344L37.9531 47.9062C36.0938 47.4219 34.9375 46.4844 34.9375 44.8594C34.9375 42.8594 36.7109 41.5312 39.0938 41.5312C41.4922 41.5312 43.125 42.8828 43.1562 44.7969H41.2031ZM44.9062 53V44.5156H46.9062V53H44.9062ZM44.7656 42.2188C44.7656 41.625 45.2891 41.1406 45.9219 41.1406C46.5547 41.1406 47.0781 41.625 47.0781 42.2188C47.0781 42.8203 46.5547 43.3047 45.9219 43.3125C45.2891 43.3047 44.7656 42.8203 44.7656 42.2188ZM53.0469 44.5156V46.0469H51.375V50.4531C51.375 51.2656 51.7812 51.4297 52.2812 51.4375C52.5156 51.4453 52.9062 51.4219 53.1562 51.4062V53.0312C52.9219 53.0703 52.5391 53.1172 52.0312 53.1094C50.5312 53.1172 49.375 52.375 49.3906 50.7812V46.0469H48.1719V44.5156H49.3906V42.4844H51.375V44.5156H53.0469ZM58.25 53.1719C55.6953 53.1719 54.125 51.4688 54.125 48.8125C54.125 46.1875 55.7188 44.4062 58.1406 44.4062C60.2188 44.4062 62.0156 45.7109 62.0156 48.6875V49.3125H56.0938C56.125 50.7578 56.9766 51.6172 58.2656 51.6094C59.1406 51.6172 59.7266 51.2422 59.9844 50.7344H61.9375C61.5781 52.2031 60.2188 53.1719 58.25 53.1719ZM56.1016 47.9531H60.1094C60.1016 46.7969 59.3203 45.9531 58.1719 45.9531C56.9766 45.9531 56.1719 46.875 56.1016 47.9531ZM69.4844 41.6875V53H67.4531V41.6875H69.4844ZM73.5 48.0312V53H71.5V44.5156H73.4062V45.9531H73.5156C73.8984 45.0078 74.7656 44.4062 76.0312 44.4062C77.7891 44.4062 78.9453 45.5625 78.9375 47.5938V53H76.9531V47.9062C76.9531 46.7656 76.3359 46.0859 75.2969 46.0938C74.2422 46.0859 73.5 46.7969 73.5 48.0312ZM85.1406 44.5156V46.0469H83.3906V53H81.3906V46.0469H80.125V44.5156H81.3906V43.7031C81.3906 42.0547 82.4141 41.1562 84.0469 41.1562C84.5078 41.1562 84.9375 41.2031 85.3125 41.2812V42.8594C84.9844 42.8125 84.7422 42.8047 84.5938 42.7969C83.7891 42.8047 83.3828 43.1172 83.3906 43.8906V44.5156H85.1406ZM89.9375 53.1719C87.4609 53.1719 85.875 51.4141 85.875 48.7969C85.875 46.1562 87.4609 44.4062 89.9375 44.4062C92.4219 44.4062 94.0078 46.1562 94 48.7969C94.0078 51.4141 92.4219 53.1719 89.9375 53.1719ZM87.8906 48.7812C87.8906 50.3359 88.5703 51.5781 89.9531 51.5781C91.3125 51.5781 91.9922 50.3359 91.9844 48.7812C91.9922 47.2266 91.3125 45.9766 89.9531 45.9844C88.5703 45.9766 87.8906 47.2266 87.8906 48.7812Z" fill="black"/>
<rect x="34.75" y="69.75" width="308.5" height="50.5" rx="25.25" fill="#F9FAFE"/>
<rect x="34.75" y="69.75" width="308.5" height="50.5" rx="25.25" stroke="#D4DBE5" stroke-width="1.5"/>
<path d="M58.0449 90.1016V100H55.9805V92.0566H55.9258L53.6562 93.4785V91.6602L56.1035 90.1016H58.0449ZM60.3418 100L60.3281 98.5098L63.8828 95.2422C64.8057 94.3604 65.3047 93.8135 65.3047 93.0273C65.3047 92.1455 64.6416 91.5986 63.7324 91.6055C62.8027 91.5986 62.1943 92.1865 62.2012 93.1367H60.2461C60.2393 91.2021 61.6748 89.9648 63.7598 89.9648C65.8789 89.9648 67.2871 91.1748 67.2871 92.8906C67.2871 94.0186 66.7402 94.9414 64.7031 96.7871L63.1992 98.25V98.3047H67.4238V100H60.3418ZM72.5508 100.137C70.377 100.137 68.8184 98.9404 68.7773 97.2109H70.8555C70.8896 97.9492 71.6074 98.4346 72.5645 98.4414C73.5488 98.4346 74.2529 97.8877 74.2461 97.0879C74.2529 96.2812 73.5352 95.7139 72.373 95.707H71.457V94.1895H72.373C73.3506 94.1895 74.0342 93.6562 74.0273 92.877C74.0342 92.1182 73.4531 91.5986 72.5781 91.6055C71.7031 91.5986 70.9854 92.0908 70.9512 92.8496H68.9824C69.0166 91.1475 70.5479 89.9648 72.5781 89.9648C74.6426 89.9648 76.0166 91.1885 76.0098 92.7539C76.0166 93.8613 75.2441 94.6475 74.1367 94.8457V94.9277C75.5928 95.1055 76.3926 95.9873 76.3789 97.2246C76.3926 98.9199 74.7861 100.137 72.5508 100.137ZM79.7559 98.9883L78.5801 102.885H77.1309L77.8145 98.9883H79.7559ZM84.0078 91.7969V90.1016H92.1152V91.7969H89.0801V100H87.043V91.7969H84.0078ZM95.6289 100.15C93.3525 100.144 91.958 98.6738 91.9648 96.3223C91.958 94.0322 93.373 92.4805 95.5469 92.4805C97.4951 92.4805 99.0332 93.7109 99.0332 96.2402V96.8145H93.9609C93.9609 97.9355 94.624 98.626 95.6699 98.6328C96.3604 98.626 96.8525 98.3252 97.0508 97.8809H98.9785C98.6914 99.2549 97.4609 100.144 95.6289 100.15ZM93.9609 95.543H97.1191C97.1123 94.6406 96.4902 93.9912 95.5879 93.998C94.6582 93.9912 94.002 94.6885 93.9609 95.543ZM102.328 95.707V100H100.305V90.1016H102.273V93.875H102.355C102.697 93.0068 103.442 92.4805 104.57 92.4805C106.122 92.4805 107.141 93.5264 107.141 95.2695V100H105.117V95.625C105.117 94.7021 104.625 94.1621 103.777 94.1621C102.923 94.1621 102.328 94.7295 102.328 95.707ZM112.062 100.15C109.786 100.144 108.392 98.6738 108.398 96.3223C108.392 94.0322 109.807 92.4805 111.98 92.4805C113.929 92.4805 115.467 93.7109 115.467 96.2402V96.8145H110.395C110.395 97.9355 111.058 98.626 112.104 98.6328C112.794 98.626 113.286 98.3252 113.484 97.8809H115.412C115.125 99.2549 113.895 100.144 112.062 100.15ZM110.395 95.543H113.553C113.546 94.6406 112.924 93.9912 112.021 93.998C111.092 93.9912 110.436 94.6885 110.395 95.543ZM116.738 100V92.5762H118.693V93.8613H118.775C119.042 92.9521 119.732 92.4668 120.566 92.4668C120.771 92.4668 121.031 92.4941 121.209 92.5352V94.3398C121.018 94.2783 120.628 94.2305 120.348 94.2305C119.432 94.2305 118.755 94.8662 118.762 95.7754V100H116.738ZM121.633 97.9219C121.64 96.2676 122.966 95.7275 124.395 95.6387C124.928 95.6045 125.926 95.5566 126.24 95.543V94.9414C126.233 94.3193 125.81 93.9639 125.051 93.957C124.36 93.9639 123.93 94.2715 123.82 94.7773H121.893C122.016 93.4922 123.137 92.4805 125.105 92.4805C126.726 92.4805 128.257 93.2051 128.25 94.9961V100H126.336V98.9746H126.281C125.919 99.6582 125.208 100.144 124.107 100.137C122.686 100.144 121.64 99.3916 121.633 97.9219ZM123.574 97.8672C123.574 98.4346 124.032 98.7354 124.682 98.7422C125.604 98.7354 126.247 98.1338 126.24 97.3477V96.8076C125.933 96.8213 125.064 96.8691 124.723 96.8965C124.019 96.958 123.574 97.293 123.574 97.8672ZM131.818 95.707V100H129.795V92.5762H131.723V93.875H131.805C132.14 93.0205 132.933 92.4805 134.033 92.4805C135.585 92.4805 136.597 93.54 136.59 95.2695V100H134.58V95.625C134.573 94.709 134.081 94.1621 133.24 94.1621C132.399 94.1621 131.818 94.7295 131.818 95.707ZM142.77 95.1191V96.7324H138.258V95.1191H142.77ZM144.451 100V92.5762H146.406V93.8613H146.488C146.755 92.9521 147.445 92.4668 148.279 92.4668C148.484 92.4668 148.744 92.4941 148.922 92.5352V94.3398C148.73 94.2783 148.341 94.2305 148.061 94.2305C147.145 94.2305 146.468 94.8662 146.475 95.7754V100H144.451ZM153.01 100.15C150.768 100.144 149.366 98.6055 149.373 96.3086C149.366 94.0186 150.768 92.4805 153.01 92.4805C155.259 92.4805 156.653 94.0186 156.66 96.3086C156.653 98.6055 155.259 100.144 153.01 100.15ZM151.424 96.3086C151.424 97.6074 151.964 98.5713 153.023 98.5781C154.056 98.5713 154.603 97.6074 154.596 96.3086C154.603 95.0029 154.056 94.0254 153.023 94.0254C151.964 94.0254 151.424 95.0029 151.424 96.3086ZM160.133 98.9883L158.957 102.885H157.508L158.191 98.9883H160.133ZM171.344 93.2871C171.063 92.3574 170.318 91.79 169.238 91.7832C167.707 91.79 166.668 92.959 166.668 95.0371C166.668 97.1289 167.673 98.3115 169.252 98.3184C170.667 98.3115 171.508 97.5117 171.535 96.2676H169.389V94.7227H173.518V95.9531C173.518 98.5508 171.733 100.137 169.238 100.137C166.463 100.137 164.576 98.1953 164.576 95.0645C164.576 91.8516 166.586 89.9648 169.197 89.9648C171.433 89.9648 173.148 91.3389 173.422 93.2871H171.344ZM174.625 97.9219C174.632 96.2676 175.958 95.7275 177.387 95.6387C177.92 95.6045 178.918 95.5566 179.232 95.543V94.9414C179.226 94.3193 178.802 93.9639 178.043 93.957C177.353 93.9639 176.922 94.2715 176.812 94.7773H174.885C175.008 93.4922 176.129 92.4805 178.098 92.4805C179.718 92.4805 181.249 93.2051 181.242 94.9961V100H179.328V98.9746H179.273C178.911 99.6582 178.2 100.144 177.1 100.137C175.678 100.144 174.632 99.3916 174.625 97.9219ZM176.566 97.8672C176.566 98.4346 177.024 98.7354 177.674 98.7422C178.597 98.7354 179.239 98.1338 179.232 97.3477V96.8076C178.925 96.8213 178.057 96.8691 177.715 96.8965C177.011 96.958 176.566 97.293 176.566 97.8672ZM184.811 95.707V100H182.787V92.5762H184.715V93.875H184.797C185.132 93.0205 185.925 92.4805 187.025 92.4805C188.577 92.4805 189.589 93.54 189.582 95.2695V100H187.572V95.625C187.565 94.709 187.073 94.1621 186.232 94.1621C185.392 94.1621 184.811 94.7295 184.811 95.707ZM194.49 102.939C192.439 102.939 191.175 102.017 191.059 100.615H193.055C193.164 101.21 193.725 101.477 194.531 101.477C195.468 101.477 196.097 101.073 196.104 100.041V98.6875H196.008C195.741 99.2891 195.085 99.8975 193.889 99.8906C192.214 99.8975 190.867 98.7148 190.867 96.2402C190.867 93.7314 192.248 92.4805 193.889 92.4805C195.133 92.4805 195.734 93.2188 196.008 93.8203H196.09V92.5762H198.1V100.082C198.093 101.976 196.603 102.939 194.49 102.939ZM192.945 96.2676C192.938 97.5527 193.492 98.3662 194.518 98.373C195.529 98.3662 196.104 97.5869 196.104 96.2676C196.104 94.9482 195.536 94.0938 194.518 94.0938C193.485 94.0938 192.938 94.9893 192.945 96.2676ZM201.695 95.707V100H199.672V92.5762H201.6V93.875H201.682C202.017 93.0205 202.81 92.4805 203.91 92.4805C205.462 92.4805 206.474 93.54 206.467 95.2695V100H204.457V95.625C204.45 94.709 203.958 94.1621 203.117 94.1621C202.276 94.1621 201.695 94.7295 201.695 95.707ZM207.684 97.9219C207.69 96.2676 209.017 95.7275 210.445 95.6387C210.979 95.6045 211.977 95.5566 212.291 95.543V94.9414C212.284 94.3193 211.86 93.9639 211.102 93.957C210.411 93.9639 209.98 94.2715 209.871 94.7773H207.943C208.066 93.4922 209.188 92.4805 211.156 92.4805C212.776 92.4805 214.308 93.2051 214.301 94.9961V100H212.387V98.9746H212.332C211.97 99.6582 211.259 100.144 210.158 100.137C208.736 100.144 207.69 99.3916 207.684 97.9219ZM209.625 97.8672C209.625 98.4346 210.083 98.7354 210.732 98.7422C211.655 98.7354 212.298 98.1338 212.291 97.3477V96.8076C211.983 96.8213 211.115 96.8691 210.773 96.8965C210.069 96.958 209.625 97.293 209.625 97.8672ZM215.846 100V92.5762H217.773V93.875H217.855C218.17 93.0068 218.922 92.4805 219.92 92.4805C220.938 92.4805 221.697 93.0205 221.943 93.875H222.012C222.319 93.0342 223.167 92.4805 224.254 92.4805C225.628 92.4805 226.592 93.3896 226.592 95.0098V100H224.568V95.4062C224.575 94.5586 224.069 94.1484 223.406 94.1484C222.647 94.1484 222.196 94.6748 222.203 95.4609V100H220.234V95.3516C220.241 94.6201 219.776 94.1484 219.086 94.1484C218.396 94.1484 217.862 94.7021 217.869 95.543V100H215.846ZM232.758 95.1191V96.7324H228.246V95.1191H232.758ZM237.775 102.939C235.725 102.939 234.46 102.017 234.344 100.615H236.34C236.449 101.21 237.01 101.477 237.816 101.477C238.753 101.477 239.382 101.073 239.389 100.041V98.6875H239.293C239.026 99.2891 238.37 99.8975 237.174 99.8906C235.499 99.8975 234.152 98.7148 234.152 96.2402C234.152 93.7314 235.533 92.4805 237.174 92.4805C238.418 92.4805 239.02 93.2188 239.293 93.8203H239.375V92.5762H241.385V100.082C241.378 101.976 239.888 102.939 237.775 102.939ZM236.23 96.2676C236.224 97.5527 236.777 98.3662 237.803 98.373C238.814 98.3662 239.389 97.5869 239.389 96.2676C239.389 94.9482 238.821 94.0938 237.803 94.0938C236.771 94.0938 236.224 94.9893 236.23 96.2676ZM246.293 100.15C244.051 100.144 242.649 98.6055 242.656 96.3086C242.649 94.0186 244.051 92.4805 246.293 92.4805C248.542 92.4805 249.937 94.0186 249.943 96.3086C249.937 98.6055 248.542 100.144 246.293 100.15ZM244.707 96.3086C244.707 97.6074 245.247 98.5713 246.307 98.5781C247.339 98.5713 247.886 97.6074 247.879 96.3086C247.886 95.0029 247.339 94.0254 246.307 94.0254C245.247 94.0254 244.707 95.0029 244.707 96.3086ZM253.416 98.9883L252.24 102.885H250.791L251.475 98.9883H253.416ZM263.424 92.9316C263.342 92.1455 262.72 91.6875 261.715 91.6875C260.676 91.6875 260.095 92.166 260.088 92.8223C260.081 93.54 260.819 93.8613 261.674 94.0527L262.562 94.2715C264.258 94.6611 265.522 95.5225 265.529 97.1699C265.522 98.9814 264.114 100.144 261.701 100.137C259.309 100.144 257.784 99.0361 257.723 96.9102H259.719C259.787 97.9082 260.58 98.4141 261.674 98.4141C262.754 98.4141 263.451 97.9082 263.451 97.1699C263.451 96.4932 262.836 96.1787 261.756 95.9121L260.676 95.6523C259.008 95.2422 257.982 94.4082 257.982 92.959C257.976 91.1611 259.562 89.9648 261.729 89.9648C263.923 89.9648 265.365 91.1816 265.393 92.9316H263.424ZM270.191 100.15C267.915 100.144 266.521 98.6738 266.527 96.3223C266.521 94.0322 267.936 92.4805 270.109 92.4805C272.058 92.4805 273.596 93.7109 273.596 96.2402V96.8145H268.523C268.523 97.9355 269.187 98.626 270.232 98.6328C270.923 98.626 271.415 98.3252 271.613 97.8809H273.541C273.254 99.2549 272.023 100.144 270.191 100.15ZM268.523 95.543H271.682C271.675 94.6406 271.053 93.9912 270.15 93.998C269.221 93.9912 268.564 94.6885 268.523 95.543ZM278.203 100.15C275.961 100.144 274.56 98.6055 274.566 96.3086C274.56 94.0186 275.961 92.4805 278.203 92.4805C280.452 92.4805 281.847 94.0186 281.854 96.3086C281.847 98.6055 280.452 100.144 278.203 100.15ZM276.617 96.3086C276.617 97.6074 277.157 98.5713 278.217 98.5781C279.249 98.5713 279.796 97.6074 279.789 96.3086C279.796 95.0029 279.249 94.0254 278.217 94.0254C277.157 94.0254 276.617 95.0029 276.617 96.3086ZM287.883 96.8418V92.5762H289.906V100H287.965V98.6602H287.883C287.548 99.5215 286.748 100.096 285.627 100.096C284.144 100.096 283.125 99.043 283.125 97.3066V92.5762H285.148V96.9512C285.148 97.833 285.654 98.3799 286.447 98.3867C287.186 98.3799 287.883 97.8535 287.883 96.8418ZM293.502 90.1016V100H291.479V90.1016H293.502Z" fill="black"/>
<path d="M323 92L317 98L311 92" stroke="#A5ABB3" stroke-width="2" stroke-linecap="round"/>
<path d="M186.938 52H185.912L189.508 42.1016H190.561L194.156 52H193.131L192.092 49.0605H187.977L186.938 52ZM188.284 48.1992H191.784L190.068 43.3594H190L188.284 48.1992ZM196.357 47.3926V52H195.414V44.5762H196.316V45.752H196.398C196.754 44.9795 197.492 44.4805 198.586 44.4805C200.09 44.4805 201.102 45.4307 201.102 47.2012V52H200.172V47.2695C200.172 46.0732 199.461 45.3213 198.34 45.3281C197.185 45.3213 196.351 46.1074 196.357 47.3926ZM202.742 49.9219C202.735 48.4111 203.959 47.8438 205.477 47.7207C205.976 47.6934 207.172 47.6113 207.527 47.5977V46.9004C207.534 45.9023 206.892 45.2939 205.723 45.3008C204.752 45.2939 204.096 45.7451 203.918 46.4219H202.947C203.104 45.2461 204.232 44.4736 205.777 44.4668C206.885 44.4736 208.457 44.9453 208.457 46.9824V52H207.527V50.8516H207.473C207.172 51.4873 206.434 52.1709 205.189 52.1641C203.836 52.1709 202.735 51.3506 202.742 49.9219ZM203.672 49.9629C203.672 50.8379 204.376 51.3301 205.326 51.3301C206.687 51.3301 207.534 50.3525 207.527 49.1699V48.3701C207.158 48.4043 205.982 48.4932 205.613 48.5137C204.301 48.6025 203.672 49.1084 203.672 49.9629ZM211.41 42.1016V52H210.467V42.1016H211.41ZM213.994 54.7891C213.796 54.7822 213.598 54.7754 213.475 54.7617L213.488 53.9277C213.577 53.9346 213.789 53.9414 213.939 53.9414C214.418 53.9414 214.896 53.8799 215.293 52.793L215.553 52.0684L212.818 44.5762H213.83L215.99 50.7969H216.059L218.232 44.5762H219.23L216.1 53.1484C215.689 54.249 215.006 54.7822 213.994 54.7891ZM220.406 52V51.2754L224.672 45.5059V45.4375H220.598V44.5762H225.875V45.3281L221.691 51.0703V51.1387H226.025V52H220.406ZM227.666 52V44.5762H228.596V52H227.666ZM227.461 42.6621C227.461 42.2998 227.769 42.0127 228.145 42.0059C228.514 42.0127 228.821 42.2998 228.828 42.6621C228.821 43.0244 228.514 43.3115 228.145 43.3047C227.769 43.3115 227.461 43.0244 227.461 42.6621ZM231.549 47.3926V52H230.605V44.5762H231.508V45.752H231.59C231.945 44.9795 232.684 44.4805 233.777 44.4805C235.281 44.4805 236.293 45.4307 236.293 47.2012V52H235.363V47.2695C235.363 46.0732 234.652 45.3213 233.531 45.3281C232.376 45.3213 231.542 46.1074 231.549 47.3926ZM241.16 54.9395C239.526 54.9395 238.323 54.2354 238.152 52.9297H239.137C239.308 53.7295 240.094 54.1191 241.16 54.1191C242.514 54.1191 243.327 53.4902 243.334 52.1367V50.4961H243.252C242.958 51.1387 242.329 51.918 240.982 51.918C239.205 51.918 237.913 50.5098 237.92 48.2266C237.913 45.957 239.164 44.4736 240.996 44.4668C242.37 44.4736 242.965 45.3213 243.266 45.957H243.348V44.5762H244.264V52.1914C244.257 54.0781 242.951 54.9395 241.16 54.9395ZM238.863 48.2539C238.856 49.9219 239.656 51.0771 241.105 51.084C242.521 51.0771 243.348 50.0107 243.348 48.2539C243.348 46.5381 242.541 45.3145 241.105 45.3145C239.643 45.3145 238.856 46.6064 238.863 48.2539ZM249.65 54.7891V44.5762H250.553V45.957H250.662C250.963 45.3213 251.544 44.4736 252.918 44.4668C254.75 44.4736 255.994 45.998 255.994 48.3086C255.994 50.6191 254.75 52.1572 252.932 52.1504C251.578 52.1572 250.956 51.3027 250.662 50.6602H250.594V54.7891H249.65ZM250.58 48.2949C250.573 50.0518 251.387 51.3096 252.809 51.3164C254.265 51.3096 255.058 49.9902 255.064 48.2949C255.058 46.6064 254.278 45.3145 252.809 45.3145C251.366 45.3145 250.573 46.5381 250.58 48.2949ZM257.266 49.9219C257.259 48.4111 258.482 47.8438 260 47.7207C260.499 47.6934 261.695 47.6113 262.051 47.5977V46.9004C262.058 45.9023 261.415 45.2939 260.246 45.3008C259.275 45.2939 258.619 45.7451 258.441 46.4219H257.471C257.628 45.2461 258.756 44.4736 260.301 44.4668C261.408 44.4736 262.98 44.9453 262.98 46.9824V52H262.051V50.8516H261.996C261.695 51.4873 260.957 52.1709 259.713 52.1641C258.359 52.1709 257.259 51.3506 257.266 49.9219ZM258.195 49.9629C258.195 50.8379 258.899 51.3301 259.85 51.3301C261.21 51.3301 262.058 50.3525 262.051 49.1699V48.3701C261.682 48.4043 260.506 48.4932 260.137 48.5137C258.824 48.6025 258.195 49.1084 258.195 49.9629ZM269.119 46.4219C268.955 45.7246 268.408 45.2871 267.492 45.2871C266.501 45.2803 265.804 45.8271 265.811 46.5449C265.804 47.1123 266.234 47.5088 267.137 47.7344L268.271 48.0078C269.522 48.3154 270.151 48.9785 270.145 49.9766C270.151 51.2412 269.119 52.1572 267.369 52.1504C265.783 52.1572 264.812 51.4258 264.621 50.1133H265.592C265.742 50.9199 266.344 51.3301 267.355 51.3301C268.47 51.3301 269.194 50.8242 269.201 50.0312C269.194 49.4434 268.791 49.0332 267.916 48.8281L266.781 48.5547C265.53 48.2607 264.874 47.5703 264.867 46.5859C264.874 45.3555 265.934 44.4668 267.492 44.4668C268.948 44.4736 269.878 45.2666 270.049 46.4219H269.119ZM274.779 44.5762V45.3691H273.221V50.0176C273.214 50.9541 273.74 51.2139 274.301 51.2207L274.916 51.1934V52.0684C274.766 52.082 274.533 52.1094 274.219 52.1094C273.255 52.1094 272.277 51.4805 272.277 50.25V45.3691H271.17V44.5762H272.277V42.7988H273.221V44.5762H274.779ZM280.098 52L284.719 43.0312V42.9766H279.4V42.1016H285.744V43.0176L281.123 52H280.098ZM293.742 52.1504C291.726 52.1572 290.427 50.5371 290.434 48.3223C290.427 46.0801 291.76 44.4736 293.729 44.4668C295.232 44.4736 296.395 45.4102 296.586 46.791H295.656C295.472 45.9844 294.781 45.3076 293.742 45.3145C292.334 45.3076 291.363 46.5176 291.363 48.2949C291.363 50.0791 292.307 51.3096 293.742 51.3164C294.706 51.3096 295.458 50.7422 295.656 49.8262H296.6C296.401 51.166 295.308 52.1572 293.742 52.1504ZM299.102 47.3926V52H298.158V42.1016H299.102V45.752H299.17C299.525 44.9727 300.243 44.4805 301.371 44.4805C302.882 44.4805 303.907 45.417 303.9 47.2012V52H302.971V47.2695C302.971 46.0596 302.253 45.3213 301.125 45.3281C299.949 45.3213 299.095 46.1074 299.102 47.3926ZM308.932 52.1504C306.833 52.1572 305.521 50.5918 305.527 48.3359C305.521 46.0801 306.86 44.4736 308.795 44.4668C310.408 44.4736 311.96 45.6084 311.967 48.1309V48.5684H306.457C306.498 50.25 307.455 51.3164 308.932 51.3164C309.95 51.3164 310.552 50.79 310.818 50.3184H311.816C311.481 51.3438 310.429 52.1572 308.932 52.1504ZM306.464 47.7617H311.01C311.01 46.374 310.107 45.3076 308.809 45.3145C307.469 45.3076 306.546 46.4287 306.464 47.7617ZM316.52 52.1504C314.503 52.1572 313.204 50.5371 313.211 48.3223C313.204 46.0801 314.537 44.4736 316.506 44.4668C318.01 44.4736 319.172 45.4102 319.363 46.791H318.434C318.249 45.9844 317.559 45.3076 316.52 45.3145C315.111 45.3076 314.141 46.5176 314.141 48.2949C314.141 50.0791 315.084 51.3096 316.52 51.3164C317.483 51.3096 318.235 50.7422 318.434 49.8262H319.377C319.179 51.166 318.085 52.1572 316.52 52.1504ZM320.936 52V42.1016H321.879V48.0215H321.975L325.393 44.5762H326.568L323.41 47.7617L326.76 52H325.584L322.713 48.3633L321.879 49.1494V52H320.936ZM332.037 46.4219C331.873 45.7246 331.326 45.2871 330.41 45.2871C329.419 45.2803 328.722 45.8271 328.729 46.5449C328.722 47.1123 329.152 47.5088 330.055 47.7344L331.189 48.0078C332.44 48.3154 333.069 48.9785 333.062 49.9766C333.069 51.2412 332.037 52.1572 330.287 52.1504C328.701 52.1572 327.73 51.4258 327.539 50.1133H328.51C328.66 50.9199 329.262 51.3301 330.273 51.3301C331.388 51.3301 332.112 50.8242 332.119 50.0312C332.112 49.4434 331.709 49.0332 330.834 48.8281L329.699 48.5547C328.448 48.2607 327.792 47.5703 327.785 46.5859C327.792 45.3555 328.852 44.4668 330.41 44.4668C331.866 44.4736 332.796 45.2666 332.967 46.4219H332.037ZM335.428 52.0684C335.024 52.0752 334.689 51.7402 334.689 51.3438C334.689 50.9404 335.024 50.6123 335.428 50.6055C335.824 50.6123 336.152 50.9404 336.152 51.3438C336.152 51.7402 335.824 52.0752 335.428 52.0684ZM338.859 52.0684C338.456 52.0752 338.121 51.7402 338.121 51.3438C338.121 50.9404 338.456 50.6123 338.859 50.6055C339.256 50.6123 339.584 50.9404 339.584 51.3438C339.584 51.7402 339.256 52.0752 338.859 52.0684ZM342.291 52.0684C341.888 52.0752 341.553 51.7402 341.553 51.3438C341.553 50.9404 341.888 50.6123 342.291 50.6055C342.688 50.6123 343.016 50.9404 343.016 51.3438C343.016 51.7402 342.688 52.0752 342.291 52.0684Z" fill="#80858B"/>
<path d="M39.5508 155.418V154.199L43.2188 148.516H45.1172V154.164H46.2305V155.418H45.1172V157H43.6641V155.418H39.5508ZM41.1094 154.164H43.6875V150.25H43.5938L41.1094 154.105V154.164ZM50.5781 157.117C48.5332 157.117 47.3145 155.535 47.3203 152.758C47.3145 149.992 48.5449 148.398 50.5781 148.398C52.6113 148.398 53.8359 149.992 53.8359 152.758C53.8359 155.541 52.6172 157.117 50.5781 157.117ZM48.8555 152.758C48.8555 154.797 49.5117 155.834 50.5781 155.84C51.6387 155.834 52.3008 154.797 52.3008 152.758C52.2949 150.736 51.6387 149.67 50.5781 149.664C49.5176 149.67 48.8613 150.736 48.8555 152.758Z" fill="black" fill-opacity="0.7"/>
<path d="M42.7852 200.867C40.9746 200.867 39.6797 199.883 39.6445 198.453H41.1797C41.2207 199.133 41.9004 199.584 42.7852 199.578C43.7168 199.584 44.3906 199.068 44.3906 198.312C44.3906 197.551 43.7344 197.006 42.6328 197H41.8711V195.828H42.6328C43.5352 195.828 44.1621 195.324 44.1562 194.586C44.1621 193.871 43.623 193.391 42.7969 193.391C42 193.391 41.3145 193.836 41.2852 194.551H39.8203C39.8555 193.127 41.1504 192.148 42.8086 192.148C44.5312 192.148 45.6445 193.203 45.6328 194.504C45.6445 195.453 45.0117 196.139 44.0859 196.332V196.402C45.2812 196.561 45.9609 197.328 45.9492 198.395C45.9609 199.83 44.6191 200.867 42.7852 200.867ZM50.4141 200.867C48.3691 200.867 47.1504 199.285 47.1562 196.508C47.1504 193.742 48.3809 192.148 50.4141 192.148C52.4473 192.148 53.6719 193.742 53.6719 196.508C53.6719 199.291 52.4531 200.867 50.4141 200.867ZM48.6914 196.508C48.6914 198.547 49.3477 199.584 50.4141 199.59C51.4746 199.584 52.1367 198.547 52.1367 196.508C52.1309 194.486 51.4746 193.42 50.4141 193.414C49.3535 193.42 48.6973 194.486 48.6914 196.508Z" fill="black" fill-opacity="0.7"/>
<path d="M40.7031 244.5V243.398L43.7031 240.504C44.5586 239.648 45.0039 239.145 45.0039 238.43C45.0039 237.639 44.377 237.141 43.5508 237.141C42.6777 237.141 42.1152 237.686 42.1211 238.547H40.668C40.6621 236.941 41.8691 235.898 43.5625 235.898C45.2969 235.898 46.4629 236.936 46.4688 238.359C46.4629 239.314 46.0059 240.088 44.3359 241.664L42.8242 243.164V243.223H46.5977V244.5H40.7031ZM51.0625 244.617C49.0176 244.617 47.7988 243.035 47.8047 240.258C47.7988 237.492 49.0293 235.898 51.0625 235.898C53.0957 235.898 54.3203 237.492 54.3203 240.258C54.3203 243.041 53.1016 244.617 51.0625 244.617ZM49.3398 240.258C49.3398 242.297 49.9961 243.334 51.0625 243.34C52.123 243.334 52.7852 242.297 52.7852 240.258C52.7793 238.236 52.123 237.17 51.0625 237.164C50.002 237.17 49.3457 238.236 49.3398 240.258Z" fill="black" fill-opacity="0.7"/>
<path d="M45.1484 279.766V288.25H43.6133V281.254H43.5664L41.5859 282.52V281.125L43.6836 279.766H45.1484ZM50.3398 288.367C48.2949 288.367 47.0762 286.785 47.082 284.008C47.0762 281.242 48.3066 279.648 50.3398 279.648C52.373 279.648 53.5977 281.242 53.5977 284.008C53.5977 286.791 52.3789 288.367 50.3398 288.367ZM48.6172 284.008C48.6172 286.047 49.2734 287.084 50.3398 287.09C51.4004 287.084 52.0625 286.047 52.0625 284.008C52.0566 281.986 51.4004 280.92 50.3398 280.914C49.2793 280.92 48.623 281.986 48.6172 284.008Z" fill="black" fill-opacity="0.7"/>
<path d="M50.832 332.117C48.7871 332.117 47.5684 330.535 47.5742 327.758C47.5684 324.992 48.7988 323.398 50.832 323.398C52.8652 323.398 54.0898 324.992 54.0898 327.758C54.0898 330.541 52.8711 332.117 50.832 332.117ZM49.1094 327.758C49.1094 329.797 49.7656 330.834 50.832 330.84C51.8926 330.834 52.5547 329.797 52.5547 327.758C52.5488 325.736 51.8926 324.67 50.832 324.664C49.7715 324.67 49.1152 325.736 49.1094 327.758Z" fill="black" fill-opacity="0.7"/>
<line x1="60" y1="151.5" x2="343" y2="151.5" stroke="#00001A" stroke-opacity="0.15" stroke-dasharray="2"/>
<line x1="60" y1="195.75" x2="343" y2="195.75" stroke="#00001A" stroke-opacity="0.15" stroke-dasharray="2"/>
<line x1="60" y1="240" x2="343" y2="240" stroke="#00001A" stroke-opacity="0.15" stroke-dasharray="2"/>
<line x1="60" y1="284.25" x2="343" y2="284.25" stroke="#00001A" stroke-opacity="0.15" stroke-dasharray="2"/>
<line x1="60" y1="328.5" x2="343" y2="328.5" stroke="#00001A" stroke-opacity="0.3"/>
<line x1="59.5" y1="329" x2="59.5" y2="152" stroke="#00001A" stroke-opacity="0.15" stroke-dasharray="2"/>
<line x1="99.9287" y1="329" x2="99.9287" y2="152" stroke="#00001A" stroke-opacity="0.15" stroke-dasharray="2"/>
<line x1="140.357" y1="329" x2="140.357" y2="152" stroke="#00001A" stroke-opacity="0.15" stroke-dasharray="2"/>
<line x1="180.786" y1="329" x2="180.786" y2="152" stroke="#00001A" stroke-opacity="0.15" stroke-dasharray="2"/>
<line x1="221.214" y1="329" x2="221.214" y2="152" stroke="#00001A" stroke-opacity="0.15" stroke-dasharray="2"/>
<line x1="261.643" y1="329" x2="261.643" y2="152" stroke="#00001A" stroke-opacity="0.15" stroke-dasharray="2"/>
<line x1="302.071" y1="329" x2="302.071" y2="152" stroke="#00001A" stroke-opacity="0.15" stroke-dasharray="2"/>
<line x1="342.5" y1="329" x2="342.5" y2="152" stroke="#00001A" stroke-opacity="0.15" stroke-dasharray="2"/>
<g filter="url(#filter1_ddd_409_11447)">
<path d="M79.3574 231.75L120.072 218.625L160.786 188L201.5 223L242.215 266.75L282.929 231.75H323.643" stroke="#0660FE" stroke-width="1.5"/>
</g>
<circle cx="79" cy="232" r="3.75" fill="white" stroke="#0660FE" stroke-width="1.5"/>
<circle cx="120" cy="219" r="3.75" fill="white" stroke="#0660FE" stroke-width="1.5"/>
<circle cx="161" cy="188" r="3.75" fill="white" stroke="#0660FE" stroke-width="1.5"/>
<circle cx="201" cy="223" r="3.75" fill="white" stroke="#0660FE" stroke-width="1.5"/>
<circle cx="242" cy="266" r="3.75" fill="white" stroke="#0660FE" stroke-width="1.5"/>
<circle cx="282" cy="232" r="3.75" fill="white" stroke="#0660FE" stroke-width="1.5"/>
<circle cx="323" cy="232" r="3.75" fill="white" stroke="#0660FE" stroke-width="1.5"/>
<path d="M67.1989 344L70.8786 336.852V336.793H66.613V335.516H72.4607V336.816L68.781 344H67.1989ZM77.1599 335.117L74.4294 345.277H73.1169L75.8591 335.117H77.1599ZM81.0739 344.117C79.2634 344.117 77.9685 343.133 77.9333 341.703H79.4685C79.5095 342.383 80.1892 342.834 81.0739 342.828C82.0056 342.834 82.6794 342.318 82.6794 341.562C82.6794 340.801 82.0232 340.256 80.9216 340.25H80.1599V339.078H80.9216C81.8239 339.078 82.4509 338.574 82.445 337.836C82.4509 337.121 81.9118 336.641 81.0857 336.641C80.2888 336.641 79.6032 337.086 79.5739 337.801H78.1091C78.1443 336.377 79.4392 335.398 81.0974 335.398C82.82 335.398 83.9333 336.453 83.9216 337.754C83.9333 338.703 83.3005 339.389 82.3747 339.582V339.652C83.57 339.811 84.2497 340.578 84.238 341.645C84.2497 343.08 82.9079 344.117 81.0739 344.117ZM88.7028 344.117C86.6579 344.117 85.4392 342.535 85.445 339.758C85.4392 336.992 86.6696 335.398 88.7028 335.398C90.736 335.398 91.9607 336.992 91.9607 339.758C91.9607 342.541 90.7419 344.117 88.7028 344.117ZM86.9802 339.758C86.9802 341.797 87.6364 342.834 88.7028 342.84C89.7634 342.834 90.4255 341.797 90.4255 339.758C90.4196 337.736 89.7634 336.67 88.7028 336.664C87.6423 336.67 86.986 337.736 86.9802 339.758Z" fill="black" fill-opacity="0.7"/>
<path d="M114.305 344.117C112.413 344.117 111.077 343.109 111.083 341.727C111.077 340.648 111.88 339.77 112.899 339.605V339.559C112.009 339.371 111.405 338.598 111.399 337.672C111.405 336.359 112.63 335.398 114.305 335.398C115.969 335.398 117.2 336.359 117.2 337.672C117.2 338.604 116.579 339.371 115.7 339.559V339.605C116.714 339.77 117.522 340.648 117.528 341.727C117.522 343.109 116.18 344.117 114.305 344.117ZM112.653 341.586C112.647 342.371 113.298 342.91 114.305 342.91C115.301 342.91 115.952 342.371 115.958 341.586C115.952 340.789 115.26 340.197 114.305 340.203C113.35 340.197 112.647 340.783 112.653 341.586ZM112.887 337.812C112.893 338.557 113.479 339.066 114.305 339.066C115.12 339.066 115.712 338.557 115.712 337.812C115.712 337.092 115.137 336.594 114.305 336.594C113.456 336.594 112.893 337.092 112.887 337.812ZM122.262 335.117L119.532 345.277H118.219L120.962 335.117H122.262ZM123.094 344V342.898L126.094 340.004C126.95 339.148 127.395 338.645 127.395 337.93C127.395 337.139 126.768 336.641 125.942 336.641C125.069 336.641 124.507 337.186 124.512 338.047H123.059C123.053 336.441 124.26 335.398 125.954 335.398C127.688 335.398 128.854 336.436 128.86 337.859C128.854 338.814 128.397 339.588 126.727 341.164L125.216 342.664V342.723H128.989V344H123.094Z" fill="black" fill-opacity="0.7"/>
<path d="M154.85 344.117C152.958 344.117 151.622 343.109 151.628 341.727C151.622 340.648 152.425 339.77 153.444 339.605V339.559C152.553 339.371 151.95 338.598 151.944 337.672C151.95 336.359 153.175 335.398 154.85 335.398C156.514 335.398 157.745 336.359 157.745 337.672C157.745 338.604 157.124 339.371 156.245 339.559V339.605C157.259 339.77 158.067 340.648 158.073 341.727C158.067 343.109 156.725 344.117 154.85 344.117ZM153.198 341.586C153.192 342.371 153.842 342.91 154.85 342.91C155.846 342.91 156.497 342.371 156.503 341.586C156.497 340.789 155.805 340.197 154.85 340.203C153.895 340.197 153.192 340.783 153.198 341.586ZM153.432 337.812C153.438 338.557 154.024 339.066 154.85 339.066C155.665 339.066 156.257 338.557 156.257 337.812C156.257 337.092 155.682 336.594 154.85 336.594C154.001 336.594 153.438 337.092 153.432 337.812ZM162.807 335.117L160.077 345.277H158.764L161.507 335.117H162.807ZM166.721 344.117C164.829 344.117 163.493 343.109 163.499 341.727C163.493 340.648 164.296 339.77 165.315 339.605V339.559C164.425 339.371 163.821 338.598 163.815 337.672C163.821 336.359 165.046 335.398 166.721 335.398C168.385 335.398 169.616 336.359 169.616 337.672C169.616 338.604 168.995 339.371 168.116 339.559V339.605C169.13 339.77 169.938 340.648 169.944 341.727C169.938 343.109 168.596 344.117 166.721 344.117ZM165.069 341.586C165.063 342.371 165.714 342.91 166.721 342.91C167.717 342.91 168.368 342.371 168.374 341.586C168.368 340.789 167.676 340.197 166.721 340.203C165.766 340.197 165.063 340.783 165.069 341.586ZM165.303 337.812C165.309 338.557 165.895 339.066 166.721 339.066C167.536 339.066 168.128 338.557 168.128 337.812C168.128 337.092 167.553 336.594 166.721 336.594C165.872 336.594 165.309 337.092 165.303 337.812Z" fill="black" fill-opacity="0.7"/>
<path d="M195.552 344.117C193.66 344.117 192.324 343.109 192.33 341.727C192.324 340.648 193.127 339.77 194.146 339.605V339.559C193.256 339.371 192.652 338.598 192.646 337.672C192.652 336.359 193.877 335.398 195.552 335.398C197.217 335.398 198.447 336.359 198.447 337.672C198.447 338.604 197.826 339.371 196.947 339.559V339.605C197.961 339.77 198.769 340.648 198.775 341.727C198.769 343.109 197.427 344.117 195.552 344.117ZM193.9 341.586C193.894 342.371 194.545 342.91 195.552 342.91C196.549 342.91 197.199 342.371 197.205 341.586C197.199 340.789 196.508 340.197 195.552 340.203C194.597 340.197 193.894 340.783 193.9 341.586ZM194.134 337.812C194.14 338.557 194.726 339.066 195.552 339.066C196.367 339.066 196.959 338.557 196.959 337.812C196.959 337.092 196.384 336.594 195.552 336.594C194.703 336.594 194.14 337.092 194.134 337.812ZM203.509 335.117L200.779 345.277H199.467L202.209 335.117H203.509ZM207.353 335.398C209.011 335.41 210.664 336.4 210.67 339.5C210.67 342.424 209.345 344.117 207.259 344.117C205.625 344.117 204.494 343.098 204.306 341.691H205.818C205.97 342.365 206.492 342.793 207.259 342.793C208.49 342.793 209.181 341.709 209.193 339.887H209.099C208.672 340.625 207.851 341.064 206.92 341.059C205.402 341.064 204.23 339.91 204.224 338.305C204.224 336.646 205.472 335.387 207.353 335.398ZM205.713 338.27C205.713 339.184 206.392 339.898 207.342 339.898C208.285 339.898 209.011 339.137 209.006 338.258C209.006 337.396 208.314 336.635 207.365 336.629C206.41 336.635 205.701 337.361 205.713 338.27Z" fill="black" fill-opacity="0.7"/>
<path d="M233.695 344.117C231.802 344.117 230.467 343.109 230.472 341.727C230.467 340.648 231.269 339.77 232.289 339.605V339.559C231.398 339.371 230.795 338.598 230.789 337.672C230.795 336.359 232.019 335.398 233.695 335.398C235.359 335.398 236.59 336.359 236.59 337.672C236.59 338.604 235.968 339.371 235.09 339.559V339.605C236.103 339.77 236.912 340.648 236.918 341.727C236.912 343.109 235.57 344.117 233.695 344.117ZM232.043 341.586C232.037 342.371 232.687 342.91 233.695 342.91C234.691 342.91 235.342 342.371 235.347 341.586C235.342 340.789 234.65 340.197 233.695 340.203C232.74 340.197 232.037 340.783 232.043 341.586ZM232.277 337.812C232.283 338.557 232.869 339.066 233.695 339.066C234.509 339.066 235.101 338.557 235.101 337.812C235.101 337.092 234.527 336.594 233.695 336.594C232.845 336.594 232.283 337.092 232.277 337.812ZM241.652 335.117L238.922 345.277H237.609L240.351 335.117H241.652ZM245.929 335.516V344H244.394V337.004H244.347L242.367 338.27V336.875L244.465 335.516H245.929ZM247.992 344V342.898L250.992 340.004C251.847 339.148 252.293 338.645 252.293 337.93C252.293 337.139 251.666 336.641 250.84 336.641C249.967 336.641 249.404 337.186 249.41 338.047H247.957C247.951 336.441 249.158 335.398 250.851 335.398C252.586 335.398 253.752 336.436 253.758 337.859C253.752 338.814 253.295 339.588 251.625 341.164L250.113 342.664V342.723H253.886V344H247.992Z" fill="black" fill-opacity="0.7"/>
<path d="M274.233 344.117C272.341 344.117 271.005 343.109 271.01 341.727C271.005 340.648 271.807 339.77 272.827 339.605V339.559C271.936 339.371 271.333 338.598 271.327 337.672C271.333 336.359 272.557 335.398 274.233 335.398C275.897 335.398 277.128 336.359 277.128 337.672C277.128 338.604 276.507 339.371 275.628 339.559V339.605C276.641 339.77 277.45 340.648 277.456 341.727C277.45 343.109 276.108 344.117 274.233 344.117ZM272.581 341.586C272.575 342.371 273.225 342.91 274.233 342.91C275.229 342.91 275.88 342.371 275.885 341.586C275.88 340.789 275.188 340.197 274.233 340.203C273.278 340.197 272.575 340.783 272.581 341.586ZM272.815 337.812C272.821 338.557 273.407 339.066 274.233 339.066C275.048 339.066 275.639 338.557 275.639 337.812C275.639 337.092 275.065 336.594 274.233 336.594C273.384 336.594 272.821 337.092 272.815 337.812ZM282.19 335.117L279.46 345.277H278.147L280.889 335.117H282.19ZM286.467 335.516V344H284.932V337.004H284.885L282.905 338.27V336.875L285.003 335.516H286.467ZM291.612 344.117C289.801 344.117 288.507 343.133 288.471 341.703H290.007C290.048 342.383 290.727 342.834 291.612 342.828C292.544 342.834 293.217 342.318 293.217 341.562C293.217 340.801 292.561 340.256 291.46 340.25H290.698V339.078H291.46C292.362 339.078 292.989 338.574 292.983 337.836C292.989 337.121 292.45 336.641 291.624 336.641C290.827 336.641 290.141 337.086 290.112 337.801H288.647C288.682 336.377 289.977 335.398 291.635 335.398C293.358 335.398 294.471 336.453 294.46 337.754C294.471 338.703 293.839 339.389 292.913 339.582V339.652C294.108 339.811 294.788 340.578 294.776 341.645C294.788 343.08 293.446 344.117 291.612 344.117Z" fill="black" fill-opacity="0.7"/>
<path d="M314.866 344.117C312.973 344.117 311.637 343.109 311.643 341.727C311.637 340.648 312.44 339.77 313.46 339.605V339.559C312.569 339.371 311.966 338.598 311.96 337.672C311.966 336.359 313.19 335.398 314.866 335.398C316.53 335.398 317.76 336.359 317.76 337.672C317.76 338.604 317.139 339.371 316.26 339.559V339.605C317.274 339.77 318.083 340.648 318.089 341.727C318.083 343.109 316.741 344.117 314.866 344.117ZM313.214 341.586C313.208 342.371 313.858 342.91 314.866 342.91C315.862 342.91 316.512 342.371 316.518 341.586C316.512 340.789 315.821 340.197 314.866 340.203C313.911 340.197 313.208 340.783 313.214 341.586ZM313.448 337.812C313.454 338.557 314.04 339.066 314.866 339.066C315.68 339.066 316.272 338.557 316.272 337.812C316.272 337.092 315.698 336.594 314.866 336.594C314.016 336.594 313.454 337.092 313.448 337.812ZM322.823 335.117L320.092 345.277H318.78L321.522 335.117H322.823ZM327.1 335.516V344H325.565V337.004H325.518L323.538 338.27V336.875L325.635 335.516H327.1ZM329.01 342.418V341.199L332.678 335.516H334.577V341.164H335.69V342.418H334.577V344H333.124V342.418H329.01ZM330.569 341.164H333.147V337.25H333.053L330.569 341.105V341.164Z" fill="black" fill-opacity="0.7"/>
<rect x="155.5" y="366" width="16" height="2" fill="#0660FE"/>
<circle cx="163.5" cy="367" r="3.5" fill="white" stroke="#0660FE"/>
<path d="M176.262 371V364.637H177.469V365.645H177.539C177.773 364.965 178.412 364.537 179.156 364.543C179.309 364.537 179.555 364.555 179.684 364.566V365.762C179.578 365.738 179.285 365.686 179.027 365.691C178.16 365.686 177.516 366.289 177.516 367.121V371H176.262ZM180.621 371V364.637H181.875V371H180.621ZM180.457 362.914C180.463 362.504 180.82 362.176 181.254 362.176C181.682 362.176 182.039 362.504 182.039 362.914C182.039 363.324 181.682 363.658 181.254 363.652C180.82 363.658 180.463 363.324 180.457 362.914ZM186.973 366.371C186.855 365.867 186.457 365.539 185.766 365.539C185.051 365.539 184.541 365.908 184.547 366.395C184.541 366.77 184.84 367.039 185.543 367.203L186.551 367.438C187.723 367.701 188.291 368.258 188.297 369.16C188.291 370.309 187.318 371.129 185.695 371.129C184.166 371.129 183.264 370.449 183.105 369.266H184.383C184.494 369.84 184.928 370.127 185.684 370.121C186.492 370.127 187.014 369.787 187.02 369.254C187.014 368.844 186.709 368.58 186.035 368.422L185.039 368.211C183.891 367.959 183.293 367.344 183.293 366.465C183.293 365.334 184.277 364.555 185.754 364.555C187.172 364.555 188.057 365.275 188.18 366.371H186.973ZM189.516 371V362.516H190.77V367.32H190.875L193.395 364.637H194.895L192.322 367.367L195.07 371H193.535L191.373 368.141L190.77 368.738V371H189.516ZM200.062 362.516V371H198.809V362.516H200.062ZM204.328 371.129C202.453 371.129 201.299 369.834 201.305 367.859C201.299 365.902 202.471 364.555 204.246 364.555C205.693 364.555 207.07 365.451 207.07 367.754V368.199H202.547C202.582 369.412 203.297 370.098 204.34 370.098C205.049 370.098 205.512 369.793 205.723 369.406H206.988C206.707 370.438 205.729 371.129 204.328 371.129ZM202.553 367.262H205.84C205.84 366.295 205.213 365.58 204.258 365.586C203.256 365.58 202.605 366.365 202.553 367.262ZM213.574 364.637L211.266 371H209.918L207.609 364.637H208.957L210.562 369.523H210.621L212.227 364.637H213.574ZM217.113 371.129C215.238 371.129 214.084 369.834 214.09 367.859C214.084 365.902 215.256 364.555 217.031 364.555C218.479 364.555 219.855 365.451 219.855 367.754V368.199H215.332C215.367 369.412 216.082 370.098 217.125 370.098C217.834 370.098 218.297 369.793 218.508 369.406H219.773C219.492 370.438 218.514 371.129 217.113 371.129ZM215.338 367.262H218.625C218.625 366.295 217.998 365.58 217.043 365.586C216.041 365.58 215.391 366.365 215.338 367.262ZM222.352 362.516V371H221.098V362.516H222.352Z" fill="black" fill-opacity="0.7"/>
<path d="M169.091 179.232L171.311 169.925C171.481 169.211 172.337 168.918 172.91 169.378L180.474 175.455C181.093 175.952 180.915 176.936 180.162 177.184L170.377 180.414C169.634 180.659 168.909 179.994 169.091 179.232Z" fill="#171717"/>
<circle cx="185.465" cy="160.501" r="17.5" transform="rotate(-1.58684 185.465 160.501)" fill="#171717"/>
<path d="M184 162.615L184 153.385C184 152.62 184.672 152 185.5 152C186.328 152 187 152.62 187 153.385L187 162.615C187 163.38 186.328 164 185.5 164C184.672 164 184 163.38 184 162.615Z" fill="white"/>
<path d="M185.5 169C184.672 169 184 168.328 184 167.5C184 166.672 184.672 166 185.5 166C186.328 166 187 166.672 187 167.5C187 168.328 186.328 169 185.5 169Z" fill="white"/>
</g>
<defs>
<filter id="filter0_d_409_11447" x="0" y="0" width="382" height="419" filterUnits="userSpaceOnUse" color-interpolation-filters="sRGB">
<feFlood flood-opacity="0" result="BackgroundImageFix"/>
<feColorMatrix in="SourceAlpha" type="matrix" values="0 0 0 0 0 0 0 0 0 0 0 0 0 0 0 0 0 0 127 0" result="hardAlpha"/>
<feMorphology radius="4" operator="erode" in="SourceAlpha" result="effect1_dropShadow_409_11447"/>
<feOffset/>
<feGaussianBlur stdDeviation="10"/>
<feComposite in2="hardAlpha" operator="out"/>
<feColorMatrix type="matrix" values="0 0 0 0 0.733913 0 0 0 0 0.752832 0 0 0 0 0.778846 0 0 0 0.5 0"/>
<feBlend mode="normal" in2="BackgroundImageFix" result="effect1_dropShadow_409_11447"/>
<feBlend mode="normal" in="SourceGraphic" in2="effect1_dropShadow_409_11447" result="shape"/>
</filter>
<filter id="filter1_ddd_409_11447" x="61.127" y="178.037" width="280.517" height="116.752" filterUnits="userSpaceOnUse" color-interpolation-filters="sRGB">
<feFlood flood-opacity="0" result="BackgroundImageFix"/>
<feColorMatrix in="SourceAlpha" type="matrix" values="0 0 0 0 0 0 0 0 0 0 0 0 0 0 0 0 0 0 127 0" result="hardAlpha"/>
<feOffset dy="1"/>
<feGaussianBlur stdDeviation="1.5"/>
<feColorMatrix type="matrix" values="0 0 0 0 0.0235294 0 0 0 0 0.376471 0 0 0 0 0.996078 0 0 0 0.4 0"/>
<feBlend mode="normal" in2="BackgroundImageFix" result="effect1_dropShadow_409_11447"/>
<feColorMatrix in="SourceAlpha" type="matrix" values="0 0 0 0 0 0 0 0 0 0 0 0 0 0 0 0 0 0 127 0" result="hardAlpha"/>
<feOffset dy="5"/>
<feGaussianBlur stdDeviation="4.5"/>
<feColorMatrix type="matrix" values="0 0 0 0 0.0235294 0 0 0 0 0.376471 0 0 0 0 0.996078 0 0 0 0.4 0"/>
<feBlend mode="normal" in2="effect1_dropShadow_409_11447" result="effect2_dropShadow_409_11447"/>
<feColorMatrix in="SourceAlpha" type="matrix" values="0 0 0 0 0 0 0 0 0 0 0 0 0 0 0 0 0 0 127 0" result="hardAlpha"/>
<feOffset dy="9"/>
<feGaussianBlur stdDeviation="9"/>
<feColorMatrix type="matrix" values="0 0 0 0 0.0235294 0 0 0 0 0.376471 0 0 0 0 0.996078 0 0 0 0.4 0"/>
<feBlend mode="normal" in2="effect2_dropShadow_409_11447" result="effect3_dropShadow_409_11447"/>
<feBlend mode="normal" in="SourceGraphic" in2="effect3_dropShadow_409_11447" result="shape"/>
</filter>
</defs>
</svg>
