<svg width="79" height="47" viewBox="0 0 79 47" fill="none" xmlns="http://www.w3.org/2000/svg">
<path fill-rule="evenodd" clip-rule="evenodd" d="M43.802 10.4277C43.802 11.5881 43.3411 12.7009 42.5206 13.5213C41.7001 14.3418 40.5873 14.8027 39.427 14.8027C38.2667 14.8027 37.1539 14.3418 36.3334 13.5213C35.5129 12.7009 35.052 11.5881 35.052 10.4277C35.052 9.26741 35.5129 8.15461 36.3334 7.33414C37.1539 6.51367 38.2667 6.05273 39.427 6.05273C40.5873 6.05273 41.7001 6.51367 42.5206 7.33414C43.3411 8.15461 43.802 9.26741 43.802 10.4277ZM41.6145 10.4277C41.6145 11.0079 41.384 11.5643 40.9738 11.9745C40.5636 12.3848 40.0072 12.6152 39.427 12.6152C38.8468 12.6152 38.2904 12.3848 37.8802 11.9745C37.47 11.5643 37.2395 11.0079 37.2395 10.4277C37.2395 9.84757 37.47 9.29117 37.8802 8.88094C38.2904 8.4707 38.8468 8.24023 39.427 8.24023C40.0072 8.24023 40.5636 8.4707 40.9738 8.88094C41.384 9.29117 41.6145 9.84757 41.6145 10.4277Z" fill="#0660FE"/>
<path fill-rule="evenodd" clip-rule="evenodd" d="M39.427 1.67773C32.6617 1.67773 27.177 7.16239 27.177 13.9277C27.177 20.6931 32.6617 26.1777 39.427 26.1777C46.1923 26.1777 51.677 20.6931 51.677 13.9277C51.677 7.16239 46.1923 1.67773 39.427 1.67773ZM29.4043 13.9277C29.4043 16.2552 30.1983 18.3979 31.5291 20.0995C32.4639 18.8724 33.6697 17.878 35.0522 17.1937C36.4348 16.5095 37.9568 16.154 39.4994 16.155C41.0222 16.1532 42.5252 16.4992 43.8939 17.1666C45.2627 17.834 46.4609 18.8051 47.3973 20.006C48.3622 18.7404 49.0119 17.2633 49.2926 15.6968C49.5733 14.1304 49.4769 12.5196 49.0115 10.9977C48.5461 9.4759 47.725 8.08676 46.6161 6.94528C45.5072 5.80379 44.1424 4.94276 42.6347 4.43344C41.127 3.92411 39.5197 3.78114 37.9457 4.01634C36.3718 4.25154 34.8765 4.85816 33.5835 5.786C32.2905 6.71384 31.2371 7.93623 30.5104 9.35202C29.7836 10.7678 29.4045 12.3363 29.4043 13.9277ZM39.427 23.9505C37.1261 23.9542 34.8947 23.1626 33.1105 21.7098C33.8285 20.6815 34.7845 19.8419 35.8969 19.2626C37.0092 18.6832 38.2452 18.3812 39.4994 18.3823C40.7379 18.3812 41.9589 18.6757 43.0608 19.2412C44.1627 19.8068 45.1137 20.6271 45.8349 21.6341C44.0369 23.1342 41.7686 23.9541 39.427 23.9505Z" fill="#0660FE"/>
<path d="M31.7422 35.5156H33.6172L36.1367 41.6797H36.2422L38.7617 35.5156H40.6367V44H39.1719V38.1641H39.0898L36.7344 43.9766H35.6445L33.2891 38.1406H33.2188V44H31.7422V35.5156ZM43.0391 46.3906C42.7402 46.3848 42.459 46.3789 42.2656 46.3555V45.1602C42.4473 45.1777 42.6992 45.1777 42.8984 45.1836C43.2617 45.1777 43.5664 45.1543 43.8242 44.4688L43.9531 44.1289L41.6328 37.6367H43.2148L44.6914 42.4414H44.7617L46.2383 37.6367H47.8203L45.2656 44.7734C44.9023 45.7871 44.2344 46.3848 43.0391 46.3906Z" fill="#0660FE"/>
</svg>
