<svg width="21" height="24" viewBox="0 0 21 24" fill="none" xmlns="http://www.w3.org/2000/svg">
<path d="M11.6734 8.4H18.3368L11.6734 1.8V8.4ZM3.19261 0H12.8849L20.1541 7.2V21.6C20.1541 22.2365 19.8989 22.847 19.4444 23.2971C18.99 23.7471 18.3737 24 17.7311 24H3.19261C2.54997 24 1.93365 23.7471 1.47923 23.2971C1.02482 22.847 0.769531 22.2365 0.769531 21.6V2.4C0.769531 1.76348 1.02482 1.15303 1.47923 0.702944C1.93365 0.252856 2.54997 0 3.19261 0ZM9.16549 12.528C9.66222 13.608 10.2922 14.496 11.0191 15.108L11.5159 15.492C10.4618 15.684 9.00799 16.02 7.46934 16.608L7.33607 16.656L7.94184 15.408C8.48703 14.364 8.88684 13.416 9.16549 12.528ZM17.0163 17.1C17.2343 16.884 17.3434 16.608 17.3555 16.308C17.3918 16.068 17.3313 15.84 17.2101 15.648C16.8588 15.084 15.9501 14.82 14.4478 14.82L12.8849 14.904L11.8309 14.208C11.0676 13.584 10.377 12.492 9.89242 11.136L9.94088 10.968C10.3407 9.372 10.7163 7.44 9.91665 6.648C9.81884 6.55393 9.70315 6.48004 9.57629 6.4306C9.44942 6.38116 9.31391 6.35716 9.17761 6.36H8.88684C8.43857 6.36 8.03876 6.828 7.92972 7.284C7.48145 8.88 7.74799 9.756 8.19626 11.208V11.22C7.89338 12.276 7.50569 13.5 6.8878 14.736L5.72472 16.896L4.64645 17.484C3.19261 18.384 2.50203 19.392 2.36876 20.028C2.3203 20.256 2.34453 20.46 2.42934 20.676L2.46569 20.736L3.04722 21.108L3.5803 21.24C4.56165 21.24 5.67626 20.1 7.17857 17.556L7.39665 17.472C8.64453 17.076 10.1953 16.8 12.2791 16.572C13.527 17.184 14.993 17.46 15.9138 17.46C16.4468 17.46 16.8103 17.328 17.0163 17.1ZM16.5195 16.248L16.6286 16.38C16.6165 16.5 16.5801 16.512 16.5195 16.536H16.4711L16.2409 16.56C15.6836 16.56 14.8234 16.332 13.939 15.948C14.048 15.828 14.0965 15.828 14.2176 15.828C15.9138 15.828 16.3984 16.128 16.5195 16.248ZM5.40972 18C4.62222 19.428 3.90742 20.22 3.36222 20.4C3.4228 19.944 3.96799 19.152 4.82819 18.372L5.40972 18ZM9.06857 9.708C8.78992 8.628 8.7778 7.752 8.98376 7.248L9.06857 7.104L9.2503 7.164C9.45626 7.452 9.48049 7.836 9.35934 8.484L9.32299 8.676L9.12915 9.66L9.06857 9.708Z" fill="#EF5350"/>
</svg>
