<svg width="18" height="18" viewBox="0 0 18 18" fill="none" xmlns="http://www.w3.org/2000/svg">
<path d="M9 0C13.9706 0 18 4.02944 18 9C18 13.9706 13.9706 18 9 18C4.02944 18 0 13.9706 0 9C0 4.02944 4.02944 0 9 0ZM12.707 5.29297C12.3165 4.90246 11.6835 4.90249 11.293 5.29297L9 7.58594L6.70703 5.29297C6.3165 4.90249 5.68348 4.90246 5.29297 5.29297C4.90246 5.68348 4.90249 6.3165 5.29297 6.70703L7.58594 9L5.29297 11.293C4.90244 11.6835 4.90244 12.3165 5.29297 12.707C5.68349 13.0976 6.31651 13.0976 6.70703 12.707L9 10.4141L11.293 12.707C11.6835 13.0976 12.3165 13.0976 12.707 12.707C13.0976 12.3165 13.0976 11.6835 12.707 11.293L10.4141 9L12.707 6.70703C13.0975 6.3165 13.0975 5.68348 12.707 5.29297Z" fill="#A5ABB3"/>
</svg>
