<svg width="350" height="66" viewBox="0 0 350 66" fill="none" xmlns="http://www.w3.org/2000/svg">
<rect width="350" height="66" rx="33" fill="#E53935" fill-opacity="0.07"/>
<path d="M59.0469 39V27.6875H66.2969V29.3906H61.0781V32.4844H65.7969V34.1875H61.0781V39H59.0469ZM69.9219 27.6875V39H67.9219V27.6875H69.9219ZM77.25 35.4375V30.5156H79.2344V39H77.3125V37.5H77.2188C76.8281 38.4453 75.9375 39.1094 74.6719 39.1094C72.9922 39.1094 71.8359 37.9531 71.8281 35.9219V30.5156H73.8281V35.6094C73.8281 36.6875 74.4688 37.375 75.4375 37.375C76.3125 37.375 77.25 36.7344 77.25 35.4375ZM84.8438 39.1719C82.3125 39.1719 80.7812 37.3594 80.7812 34.7969C80.7812 32.1953 82.3594 30.4062 84.8438 30.4062C86.8984 30.4062 88.3438 31.6094 88.4844 33.4375H86.5781C86.4219 32.625 85.8281 32.0078 84.8594 32C83.625 32.0078 82.7969 33.0391 82.7969 34.75C82.7969 36.5 83.6094 37.5391 84.8594 37.5469C85.7422 37.5391 86.3984 37.0234 86.5781 36.1094H88.4844C88.3359 37.8984 86.9766 39.1719 84.8438 39.1719ZM94.2188 30.5156V32.0469H92.5469V36.4531C92.5469 37.2656 92.9531 37.4297 93.4531 37.4375C93.6875 37.4453 94.0781 37.4219 94.3281 37.4062V39.0312C94.0938 39.0703 93.7109 39.1172 93.2031 39.1094C91.7031 39.1172 90.5469 38.375 90.5625 36.7812V32.0469H89.3438V30.5156H90.5625V28.4844H92.5469V30.5156H94.2188ZM101.172 35.4375V30.5156H103.156V39H101.234V37.5H101.141C100.75 38.4453 99.8594 39.1094 98.5938 39.1094C96.9141 39.1094 95.7578 37.9531 95.75 35.9219V30.5156H97.75V35.6094C97.75 36.6875 98.3906 37.375 99.3594 37.375C100.234 37.375 101.172 36.7344 101.172 35.4375ZM104.672 36.6094C104.672 34.7031 106.258 34.1484 107.828 34.0469C108.422 34 109.633 33.9453 110.008 33.9297L110 33.25C110 32.4062 109.461 31.9219 108.469 31.9219C107.578 31.9219 107.031 32.3281 106.875 32.9375H104.953C105.094 31.4922 106.391 30.4062 108.516 30.4062C110.125 30.4062 111.984 31.0703 111.984 33.3281V39H110.078V37.8281H110.016C109.641 38.5469 108.852 39.1719 107.516 39.1719C105.898 39.1719 104.672 38.2891 104.672 36.6094ZM106.594 36.5938C106.594 37.3281 107.195 37.7031 108.031 37.7031C109.242 37.7031 110.016 36.9062 110.016 35.9531L110.008 35.2578C109.648 35.2734 108.539 35.3438 108.141 35.375C107.195 35.4531 106.594 35.8516 106.594 36.5938ZM118.094 30.5156V32.0469H116.422V36.4531C116.422 37.2656 116.828 37.4297 117.328 37.4375C117.562 37.4453 117.953 37.4219 118.203 37.4062V39.0312C117.969 39.0703 117.586 39.1172 117.078 39.1094C115.578 39.1172 114.422 38.375 114.438 36.7812V32.0469H113.219V30.5156H114.438V28.4844H116.422V30.5156H118.094ZM119.625 39V30.5156H121.625V39H119.625ZM119.484 28.2188C119.484 27.625 120.008 27.1406 120.641 27.1406C121.273 27.1406 121.797 27.625 121.797 28.2188C121.797 28.8203 121.273 29.3047 120.641 29.3125C120.008 29.3047 119.484 28.8203 119.484 28.2188ZM127.234 39.1719C124.758 39.1719 123.172 37.4141 123.172 34.7969C123.172 32.1562 124.758 30.4062 127.234 30.4062C129.719 30.4062 131.305 32.1562 131.297 34.7969C131.305 37.4141 129.719 39.1719 127.234 39.1719ZM125.188 34.7812C125.188 36.3359 125.867 37.5781 127.25 37.5781C128.609 37.5781 129.289 36.3359 129.281 34.7812C129.289 33.2266 128.609 31.9766 127.25 31.9844C125.867 31.9766 125.188 33.2266 125.188 34.7812ZM134.844 34.0312V39H132.844V30.5156H134.75V31.9531H134.859C135.242 31.0078 136.109 30.4062 137.375 30.4062C139.133 30.4062 140.289 31.5625 140.281 33.5938V39H138.297V33.9062C138.297 32.7656 137.68 32.0859 136.641 32.0938C135.586 32.0859 134.844 32.7969 134.844 34.0312ZM147 32.9375C146.875 32.2969 146.344 31.8828 145.5 31.8906C144.648 31.8828 144.023 32.3125 144.031 32.8906C144.023 33.3281 144.375 33.6562 145.234 33.8594L146.672 34.1562C148.273 34.5078 149.055 35.25 149.062 36.4688C149.055 38.0625 147.656 39.1719 145.438 39.1719C143.281 39.1719 142.008 38.2031 141.797 36.5781H143.828C143.945 37.3047 144.508 37.6641 145.438 37.6562C146.398 37.6641 147.023 37.2734 147.031 36.6406C147.023 36.1484 146.641 35.8359 145.797 35.6562L144.438 35.3594C142.859 35.0391 142.039 34.2109 142.047 33C142.039 31.4297 143.398 30.4062 145.469 30.4062C147.492 30.4062 148.742 31.3984 148.891 32.9375H147ZM156.375 34.0312V39H154.375V27.6875H156.328V31.9531H156.438C156.82 30.9922 157.648 30.4062 158.953 30.4062C160.711 30.4062 161.875 31.5469 161.875 33.5938V39H159.891V33.9062C159.883 32.75 159.266 32.0859 158.219 32.0938C157.141 32.0859 156.375 32.7969 156.375 34.0312ZM167.469 39.1719C164.992 39.1719 163.406 37.4141 163.406 34.7969C163.406 32.1562 164.992 30.4062 167.469 30.4062C169.953 30.4062 171.539 32.1562 171.531 34.7969C171.539 37.4141 169.953 39.1719 167.469 39.1719ZM165.422 34.7812C165.422 36.3359 166.102 37.5781 167.484 37.5781C168.844 37.5781 169.523 36.3359 169.516 34.7812C169.523 33.2266 168.844 31.9766 167.484 31.9844C166.102 31.9766 165.422 33.2266 165.422 34.7812ZM175.078 27.6875V39H173.078V27.6875H175.078ZM180.141 39.1562C178.148 39.1484 176.641 37.5547 176.641 34.7656C176.641 31.9375 178.188 30.4062 180.156 30.4062C181.648 30.4062 182.273 31.3047 182.578 31.9062H182.656V27.6875H184.641V39H182.688V37.6562H182.578C182.258 38.2812 181.609 39.1484 180.141 39.1562ZM178.672 34.75C178.672 36.3516 179.375 37.5156 180.688 37.5156C181.977 37.5156 182.703 36.4062 182.703 34.75C182.703 33.1016 181.984 32.0391 180.688 32.0312C179.359 32.0391 178.672 33.1719 178.672 34.75ZM190.547 39V27.6875H192.547V31.9062H192.625C192.93 31.3047 193.547 30.4062 195.047 30.4062C197.008 30.4062 198.555 31.9375 198.562 34.7656C198.555 37.5547 197.055 39.1484 195.062 39.1562C193.594 39.1484 192.938 38.2812 192.625 37.6562H192.5V39H190.547ZM192.5 34.75C192.5 36.4062 193.227 37.5156 194.5 37.5156C195.828 37.5156 196.523 36.3516 196.531 34.75C196.523 33.1719 195.844 32.0391 194.5 32.0312C193.211 32.0391 192.5 33.1016 192.5 34.75ZM203.891 39.1719C201.336 39.1719 199.766 37.4688 199.766 34.8125C199.766 32.1875 201.359 30.4062 203.781 30.4062C205.859 30.4062 207.656 31.7109 207.656 34.6875V35.3125H201.734C201.766 36.7578 202.617 37.6172 203.906 37.6094C204.781 37.6172 205.367 37.2422 205.625 36.7344H207.578C207.219 38.2031 205.859 39.1719 203.891 39.1719ZM201.742 33.9531H205.75C205.742 32.7969 204.961 31.9531 203.812 31.9531C202.617 31.9531 201.812 32.875 201.742 33.9531ZM213.438 30.5156V32.0469H211.766V36.4531C211.766 37.2656 212.172 37.4297 212.672 37.4375C212.906 37.4453 213.297 37.4219 213.547 37.4062V39.0312C213.312 39.0703 212.93 39.1172 212.422 39.1094C210.922 39.1172 209.766 38.375 209.781 36.7812V32.0469H208.562V30.5156H209.781V28.4844H211.766V30.5156H213.438ZM216.734 39L214.328 30.5156H216.359L217.859 36.4844H217.938L219.453 30.5156H221.469L223 36.4531H223.078L224.562 30.5156H226.594L224.188 39H222.109L220.516 33.25H220.406L218.812 39H216.734ZM231.391 39.1719C228.836 39.1719 227.266 37.4688 227.266 34.8125C227.266 32.1875 228.859 30.4062 231.281 30.4062C233.359 30.4062 235.156 31.7109 235.156 34.6875V35.3125H229.234C229.266 36.7578 230.117 37.6172 231.406 37.6094C232.281 37.6172 232.867 37.2422 233.125 36.7344H235.078C234.719 38.2031 233.359 39.1719 231.391 39.1719ZM229.242 33.9531H233.25C233.242 32.7969 232.461 31.9531 231.312 31.9531C230.117 31.9531 229.312 32.875 229.242 33.9531ZM240.469 39.1719C237.914 39.1719 236.344 37.4688 236.344 34.8125C236.344 32.1875 237.938 30.4062 240.359 30.4062C242.438 30.4062 244.234 31.7109 244.234 34.6875V35.3125H238.312C238.344 36.7578 239.195 37.6172 240.484 37.6094C241.359 37.6172 241.945 37.2422 242.203 36.7344H244.156C243.797 38.2031 242.438 39.1719 240.469 39.1719ZM238.32 33.9531H242.328C242.32 32.7969 241.539 31.9531 240.391 31.9531C239.195 31.9531 238.391 32.875 238.32 33.9531ZM247.781 34.0312V39H245.781V30.5156H247.688V31.9531H247.797C248.18 31.0078 249.047 30.4062 250.312 30.4062C252.07 30.4062 253.227 31.5625 253.219 33.5938V39H251.234V33.9062C251.234 32.7656 250.617 32.0859 249.578 32.0938C248.523 32.0859 247.781 32.7969 247.781 34.0312ZM263.5 27.6875V39H261.453V29.6719H261.391L258.75 31.3594V29.5L261.547 27.6875H263.5ZM266.047 36.8906V35.2656L270.938 27.6875H273.469V35.2188H274.953V36.8906H273.469V39H271.531V36.8906H266.047ZM268.125 35.2188H271.562V30H271.438L268.125 35.1406V35.2188ZM281.734 32.5312V34.1719H276.641V32.5312H281.734ZM283.281 39V37.5312L287.281 33.6719C288.422 32.5312 289.016 31.8594 289.016 30.9062C289.016 29.8516 288.18 29.1875 287.078 29.1875C285.914 29.1875 285.164 29.9141 285.172 31.0625H283.234C283.227 28.9219 284.836 27.5312 287.094 27.5312C289.406 27.5312 290.961 28.9141 290.969 30.8125C290.961 32.0859 290.352 33.1172 288.125 35.2188L286.109 37.2188V37.2969H291.141V39H283.281ZM292.922 39V37.5312L296.922 33.6719C298.062 32.5312 298.656 31.8594 298.656 30.9062C298.656 29.8516 297.82 29.1875 296.719 29.1875C295.555 29.1875 294.805 29.9141 294.812 31.0625H292.875C292.867 28.9219 294.477 27.5312 296.734 27.5312C299.047 27.5312 300.602 28.9141 300.609 30.8125C300.602 32.0859 299.992 33.1172 297.766 35.2188L295.75 37.2188V37.2969H300.781V39H292.922ZM303.812 39.125C303.141 39.125 302.586 38.5781 302.594 37.9062C302.586 37.25 303.141 36.7109 303.812 36.7031C304.461 36.7109 305.016 37.25 305.016 37.9062C305.016 38.5781 304.461 39.125 303.812 39.125Z" fill="#E53935"/>
<path d="M36.0518 26.875C36.8907 25.4222 38.948 25.3765 39.8633 26.7383L39.9482 26.875L46.877 38.875C47.7429 40.375 46.6598 42.25 44.9277 42.25H31.0723C29.3402 42.25 28.2571 40.375 29.123 38.875L36.0518 26.875Z" stroke="#E53935" stroke-width="1.5"/>
<path d="M38 31L38 36" stroke="#E53935" stroke-width="1.5" stroke-linecap="round"/>
<circle cx="38" cy="39" r="1" fill="#E53935"/>
</svg>
